<mxfile host="65bd71144e" pages="5">
    <diagram id="T0Y7_ME5R4ELBXUhIhRj" name="9">
        <mxGraphModel dx="1491" dy="736" grid="1" gridSize="10" guides="1" tooltips="1" connect="1" arrows="1" fold="1" page="1" pageScale="1" pageWidth="827" pageHeight="1169" math="0" shadow="0">
            <root>
                <mxCell id="0"/>
                <mxCell id="1" parent="0"/>
                <mxCell id="LelZU1vCG-GNqXFeRRWG-6" style="rounded=0;orthogonalLoop=1;jettySize=auto;html=1;exitX=1;exitY=0.5;exitDx=0;exitDy=0;entryX=0;entryY=0.5;entryDx=0;entryDy=0;endArrow=none;endFill=0;" parent="1" source="LelZU1vCG-GNqXFeRRWG-1" target="LelZU1vCG-GNqXFeRRWG-3" edge="1">
                    <mxGeometry relative="1" as="geometry"/>
                </mxCell>
                <mxCell id="LelZU1vCG-GNqXFeRRWG-10" style="edgeStyle=none;rounded=0;orthogonalLoop=1;jettySize=auto;html=1;exitX=1;exitY=1;exitDx=0;exitDy=0;entryX=0;entryY=0;entryDx=0;entryDy=0;endArrow=none;endFill=0;" parent="1" source="LelZU1vCG-GNqXFeRRWG-1" target="LelZU1vCG-GNqXFeRRWG-2" edge="1">
                    <mxGeometry relative="1" as="geometry"/>
                </mxCell>
                <mxCell id="LelZU1vCG-GNqXFeRRWG-1" value="" style="ellipse;whiteSpace=wrap;html=1;aspect=fixed;strokeWidth=3;" parent="1" vertex="1">
                    <mxGeometry x="70" y="90" width="50" height="50" as="geometry"/>
                </mxCell>
                <mxCell id="LelZU1vCG-GNqXFeRRWG-8" style="edgeStyle=none;rounded=0;orthogonalLoop=1;jettySize=auto;html=1;entryX=1;entryY=0.5;entryDx=0;entryDy=0;endArrow=none;endFill=0;" parent="1" source="LelZU1vCG-GNqXFeRRWG-2" target="LelZU1vCG-GNqXFeRRWG-4" edge="1">
                    <mxGeometry relative="1" as="geometry"/>
                </mxCell>
                <mxCell id="LelZU1vCG-GNqXFeRRWG-2" value="" style="ellipse;whiteSpace=wrap;html=1;aspect=fixed;strokeWidth=3;" parent="1" vertex="1">
                    <mxGeometry x="210" y="240" width="50" height="50" as="geometry"/>
                </mxCell>
                <mxCell id="LelZU1vCG-GNqXFeRRWG-7" style="edgeStyle=none;rounded=0;orthogonalLoop=1;jettySize=auto;html=1;entryX=0.5;entryY=0;entryDx=0;entryDy=0;endArrow=none;endFill=0;" parent="1" source="LelZU1vCG-GNqXFeRRWG-3" target="LelZU1vCG-GNqXFeRRWG-2" edge="1">
                    <mxGeometry relative="1" as="geometry"/>
                </mxCell>
                <mxCell id="LelZU1vCG-GNqXFeRRWG-11" style="edgeStyle=none;rounded=0;orthogonalLoop=1;jettySize=auto;html=1;exitX=0;exitY=1;exitDx=0;exitDy=0;entryX=1;entryY=0;entryDx=0;entryDy=0;endArrow=none;endFill=0;" parent="1" source="LelZU1vCG-GNqXFeRRWG-3" target="LelZU1vCG-GNqXFeRRWG-4" edge="1">
                    <mxGeometry relative="1" as="geometry"/>
                </mxCell>
                <mxCell id="LelZU1vCG-GNqXFeRRWG-3" value="" style="ellipse;whiteSpace=wrap;html=1;aspect=fixed;strokeWidth=3;" parent="1" vertex="1">
                    <mxGeometry x="210" y="90" width="50" height="50" as="geometry"/>
                </mxCell>
                <mxCell id="LelZU1vCG-GNqXFeRRWG-9" style="edgeStyle=none;rounded=0;orthogonalLoop=1;jettySize=auto;html=1;entryX=0.5;entryY=1;entryDx=0;entryDy=0;endArrow=none;endFill=0;" parent="1" source="LelZU1vCG-GNqXFeRRWG-4" target="LelZU1vCG-GNqXFeRRWG-1" edge="1">
                    <mxGeometry relative="1" as="geometry"/>
                </mxCell>
                <mxCell id="LelZU1vCG-GNqXFeRRWG-4" value="" style="ellipse;whiteSpace=wrap;html=1;aspect=fixed;strokeWidth=3;" parent="1" vertex="1">
                    <mxGeometry x="70" y="240" width="50" height="50" as="geometry"/>
                </mxCell>
                <mxCell id="LelZU1vCG-GNqXFeRRWG-12" value="&lt;font style=&quot;font-size: 16px;&quot;&gt;&lt;b&gt;4&lt;/b&gt;&lt;/font&gt;" style="text;html=1;strokeColor=none;fillColor=none;align=center;verticalAlign=middle;whiteSpace=wrap;rounded=0;strokeWidth=3;" parent="1" vertex="1">
                    <mxGeometry x="205" y="250" width="60" height="30" as="geometry"/>
                </mxCell>
                <mxCell id="LelZU1vCG-GNqXFeRRWG-13" value="&lt;font style=&quot;font-size: 16px;&quot;&gt;&lt;b&gt;3&lt;/b&gt;&lt;/font&gt;" style="text;html=1;strokeColor=none;fillColor=none;align=center;verticalAlign=middle;whiteSpace=wrap;rounded=0;strokeWidth=3;" parent="1" vertex="1">
                    <mxGeometry x="65" y="250" width="60" height="30" as="geometry"/>
                </mxCell>
                <mxCell id="LelZU1vCG-GNqXFeRRWG-14" value="&lt;font style=&quot;font-size: 16px;&quot;&gt;&lt;b&gt;1&lt;/b&gt;&lt;/font&gt;" style="text;html=1;strokeColor=none;fillColor=none;align=center;verticalAlign=middle;whiteSpace=wrap;rounded=0;strokeWidth=3;" parent="1" vertex="1">
                    <mxGeometry x="65" y="100" width="60" height="30" as="geometry"/>
                </mxCell>
                <mxCell id="LelZU1vCG-GNqXFeRRWG-15" value="&lt;font style=&quot;font-size: 16px;&quot;&gt;&lt;b&gt;2&lt;/b&gt;&lt;/font&gt;" style="text;html=1;strokeColor=none;fillColor=none;align=center;verticalAlign=middle;whiteSpace=wrap;rounded=0;strokeWidth=3;" parent="1" vertex="1">
                    <mxGeometry x="205" y="100" width="60" height="30" as="geometry"/>
                </mxCell>
                <mxCell id="LelZU1vCG-GNqXFeRRWG-37" style="edgeStyle=none;rounded=0;orthogonalLoop=1;jettySize=auto;html=1;exitX=0.68;exitY=0.003;exitDx=0;exitDy=0;entryX=0.5;entryY=1;entryDx=0;entryDy=0;fontSize=16;endArrow=none;endFill=0;exitPerimeter=0;" parent="1" source="LelZU1vCG-GNqXFeRRWG-16" target="LelZU1vCG-GNqXFeRRWG-18" edge="1">
                    <mxGeometry relative="1" as="geometry"/>
                </mxCell>
                <mxCell id="LelZU1vCG-GNqXFeRRWG-16" value="" style="ellipse;whiteSpace=wrap;html=1;aspect=fixed;strokeWidth=3;" parent="1" vertex="1">
                    <mxGeometry x="214.5" y="570" width="50" height="50" as="geometry"/>
                </mxCell>
                <mxCell id="LelZU1vCG-GNqXFeRRWG-17" value="&lt;font style=&quot;font-size: 16px;&quot;&gt;&lt;b&gt;5&lt;/b&gt;&lt;/font&gt;" style="text;html=1;strokeColor=none;fillColor=none;align=center;verticalAlign=middle;whiteSpace=wrap;rounded=0;strokeWidth=3;" parent="1" vertex="1">
                    <mxGeometry x="209.5" y="580" width="60" height="30" as="geometry"/>
                </mxCell>
                <mxCell id="LelZU1vCG-GNqXFeRRWG-18" value="" style="ellipse;whiteSpace=wrap;html=1;aspect=fixed;strokeWidth=3;" parent="1" vertex="1">
                    <mxGeometry x="249.5" y="460" width="50" height="50" as="geometry"/>
                </mxCell>
                <mxCell id="LelZU1vCG-GNqXFeRRWG-34" style="edgeStyle=none;rounded=0;orthogonalLoop=1;jettySize=auto;html=1;exitX=1;exitY=0.5;exitDx=0;exitDy=0;entryX=0;entryY=0.5;entryDx=0;entryDy=0;fontSize=16;endArrow=none;endFill=0;" parent="1" source="LelZU1vCG-GNqXFeRRWG-19" target="LelZU1vCG-GNqXFeRRWG-18" edge="1">
                    <mxGeometry relative="1" as="geometry"/>
                </mxCell>
                <mxCell id="LelZU1vCG-GNqXFeRRWG-35" style="edgeStyle=none;rounded=0;orthogonalLoop=1;jettySize=auto;html=1;fontSize=16;endArrow=none;endFill=0;" parent="1" target="LelZU1vCG-GNqXFeRRWG-21" edge="1">
                    <mxGeometry relative="1" as="geometry">
                        <mxPoint x="84.5" y="510" as="sourcePoint"/>
                    </mxGeometry>
                </mxCell>
                <mxCell id="LelZU1vCG-GNqXFeRRWG-38" style="edgeStyle=none;rounded=0;orthogonalLoop=1;jettySize=auto;html=1;exitX=1;exitY=0.5;exitDx=0;exitDy=0;entryX=0;entryY=0;entryDx=0;entryDy=0;fontSize=16;endArrow=none;endFill=0;" parent="1" source="LelZU1vCG-GNqXFeRRWG-19" target="LelZU1vCG-GNqXFeRRWG-16" edge="1">
                    <mxGeometry relative="1" as="geometry"/>
                </mxCell>
                <mxCell id="LelZU1vCG-GNqXFeRRWG-19" value="" style="ellipse;whiteSpace=wrap;html=1;aspect=fixed;strokeWidth=3;" parent="1" vertex="1">
                    <mxGeometry x="54.5" y="460" width="50" height="50" as="geometry"/>
                </mxCell>
                <mxCell id="LelZU1vCG-GNqXFeRRWG-30" style="edgeStyle=none;rounded=0;orthogonalLoop=1;jettySize=auto;html=1;exitX=0.013;exitY=0.669;exitDx=0;exitDy=0;entryX=0.75;entryY=0;entryDx=0;entryDy=0;fontSize=16;endArrow=none;endFill=0;exitPerimeter=0;" parent="1" source="LelZU1vCG-GNqXFeRRWG-20" target="LelZU1vCG-GNqXFeRRWG-24" edge="1">
                    <mxGeometry relative="1" as="geometry"/>
                </mxCell>
                <mxCell id="LelZU1vCG-GNqXFeRRWG-31" style="edgeStyle=none;rounded=0;orthogonalLoop=1;jettySize=auto;html=1;exitX=1;exitY=0.5;exitDx=0;exitDy=0;entryX=0;entryY=0;entryDx=0;entryDy=0;fontSize=16;endArrow=none;endFill=0;" parent="1" source="LelZU1vCG-GNqXFeRRWG-20" target="LelZU1vCG-GNqXFeRRWG-18" edge="1">
                    <mxGeometry relative="1" as="geometry"/>
                </mxCell>
                <mxCell id="LelZU1vCG-GNqXFeRRWG-32" style="edgeStyle=none;rounded=0;orthogonalLoop=1;jettySize=auto;html=1;exitX=0.5;exitY=1;exitDx=0;exitDy=0;entryX=0.5;entryY=0;entryDx=0;entryDy=0;fontSize=16;endArrow=none;endFill=0;" parent="1" source="LelZU1vCG-GNqXFeRRWG-20" target="LelZU1vCG-GNqXFeRRWG-21" edge="1">
                    <mxGeometry relative="1" as="geometry"/>
                </mxCell>
                <mxCell id="LelZU1vCG-GNqXFeRRWG-33" style="edgeStyle=none;rounded=0;orthogonalLoop=1;jettySize=auto;html=1;exitX=0.5;exitY=1;exitDx=0;exitDy=0;entryX=0.5;entryY=0;entryDx=0;entryDy=0;fontSize=16;endArrow=none;endFill=0;" parent="1" source="LelZU1vCG-GNqXFeRRWG-20" target="LelZU1vCG-GNqXFeRRWG-16" edge="1">
                    <mxGeometry relative="1" as="geometry"/>
                </mxCell>
                <mxCell id="LelZU1vCG-GNqXFeRRWG-20" value="" style="ellipse;whiteSpace=wrap;html=1;aspect=fixed;strokeWidth=3;" parent="1" vertex="1">
                    <mxGeometry x="154.5" y="380" width="50" height="50" as="geometry"/>
                </mxCell>
                <mxCell id="LelZU1vCG-GNqXFeRRWG-36" style="edgeStyle=none;rounded=0;orthogonalLoop=1;jettySize=auto;html=1;exitX=1;exitY=0.5;exitDx=0;exitDy=0;entryX=0;entryY=0.5;entryDx=0;entryDy=0;fontSize=16;endArrow=none;endFill=0;" parent="1" source="LelZU1vCG-GNqXFeRRWG-21" target="LelZU1vCG-GNqXFeRRWG-16" edge="1">
                    <mxGeometry relative="1" as="geometry"/>
                </mxCell>
                <mxCell id="LelZU1vCG-GNqXFeRRWG-39" style="edgeStyle=none;rounded=0;orthogonalLoop=1;jettySize=auto;html=1;exitX=1;exitY=0;exitDx=0;exitDy=0;entryX=0;entryY=0.5;entryDx=0;entryDy=0;fontSize=16;endArrow=none;endFill=0;" parent="1" source="LelZU1vCG-GNqXFeRRWG-21" target="LelZU1vCG-GNqXFeRRWG-18" edge="1">
                    <mxGeometry relative="1" as="geometry"/>
                </mxCell>
                <mxCell id="LelZU1vCG-GNqXFeRRWG-21" value="" style="ellipse;whiteSpace=wrap;html=1;aspect=fixed;strokeWidth=3;" parent="1" vertex="1">
                    <mxGeometry x="104.5" y="570" width="50" height="50" as="geometry"/>
                </mxCell>
                <mxCell id="LelZU1vCG-GNqXFeRRWG-23" value="&lt;font style=&quot;font-size: 16px;&quot;&gt;&lt;b&gt;4&lt;/b&gt;&lt;/font&gt;" style="text;html=1;strokeColor=none;fillColor=none;align=center;verticalAlign=middle;whiteSpace=wrap;rounded=0;strokeWidth=3;" parent="1" vertex="1">
                    <mxGeometry x="99.5" y="580" width="60" height="30" as="geometry"/>
                </mxCell>
                <mxCell id="LelZU1vCG-GNqXFeRRWG-24" value="&lt;font style=&quot;font-size: 16px;&quot;&gt;&lt;b&gt;2&lt;/b&gt;&lt;/font&gt;" style="text;html=1;strokeColor=none;fillColor=none;align=center;verticalAlign=middle;whiteSpace=wrap;rounded=0;strokeWidth=3;" parent="1" vertex="1">
                    <mxGeometry x="49.5" y="470" width="60" height="30" as="geometry"/>
                </mxCell>
                <mxCell id="LelZU1vCG-GNqXFeRRWG-25" value="&lt;font style=&quot;font-size: 16px;&quot;&gt;&lt;b&gt;3&lt;/b&gt;&lt;/font&gt;" style="text;html=1;strokeColor=none;fillColor=none;align=center;verticalAlign=middle;whiteSpace=wrap;rounded=0;strokeWidth=3;" parent="1" vertex="1">
                    <mxGeometry x="244.5" y="470" width="60" height="30" as="geometry"/>
                </mxCell>
                <mxCell id="LelZU1vCG-GNqXFeRRWG-26" value="&lt;font style=&quot;font-size: 16px;&quot;&gt;&lt;b&gt;1&lt;/b&gt;&lt;/font&gt;" style="text;html=1;strokeColor=none;fillColor=none;align=center;verticalAlign=middle;whiteSpace=wrap;rounded=0;strokeWidth=3;" parent="1" vertex="1">
                    <mxGeometry x="149.5" y="390" width="60" height="30" as="geometry"/>
                </mxCell>
                <mxCell id="LelZU1vCG-GNqXFeRRWG-58" style="edgeStyle=none;rounded=0;orthogonalLoop=1;jettySize=auto;html=1;exitX=1;exitY=0;exitDx=0;exitDy=0;entryX=0.5;entryY=1;entryDx=0;entryDy=0;fontSize=16;endArrow=none;endFill=0;" parent="1" source="LelZU1vCG-GNqXFeRRWG-41" target="LelZU1vCG-GNqXFeRRWG-49" edge="1">
                    <mxGeometry relative="1" as="geometry"/>
                </mxCell>
                <mxCell id="LelZU1vCG-GNqXFeRRWG-41" value="" style="ellipse;whiteSpace=wrap;html=1;aspect=fixed;strokeWidth=3;" parent="1" vertex="1">
                    <mxGeometry x="260.5" y="940" width="50" height="50" as="geometry"/>
                </mxCell>
                <mxCell id="LelZU1vCG-GNqXFeRRWG-57" style="edgeStyle=none;rounded=0;orthogonalLoop=1;jettySize=auto;html=1;exitX=1;exitY=0.5;exitDx=0;exitDy=0;entryX=0;entryY=0.5;entryDx=0;entryDy=0;fontSize=16;endArrow=none;endFill=0;" parent="1" source="LelZU1vCG-GNqXFeRRWG-48" target="LelZU1vCG-GNqXFeRRWG-41" edge="1">
                    <mxGeometry relative="1" as="geometry"/>
                </mxCell>
                <mxCell id="LelZU1vCG-GNqXFeRRWG-68" style="edgeStyle=none;rounded=0;orthogonalLoop=1;jettySize=auto;html=1;exitX=1;exitY=0;exitDx=0;exitDy=0;entryX=-0.033;entryY=0.669;entryDx=0;entryDy=0;entryPerimeter=0;fontSize=16;endArrow=none;endFill=0;" parent="1" source="LelZU1vCG-GNqXFeRRWG-48" target="LelZU1vCG-GNqXFeRRWG-49" edge="1">
                    <mxGeometry relative="1" as="geometry"/>
                </mxCell>
                <mxCell id="LelZU1vCG-GNqXFeRRWG-48" value="" style="ellipse;whiteSpace=wrap;html=1;aspect=fixed;strokeWidth=3;" parent="1" vertex="1">
                    <mxGeometry x="90.5" y="940" width="50" height="50" as="geometry"/>
                </mxCell>
                <mxCell id="LelZU1vCG-GNqXFeRRWG-59" style="edgeStyle=none;rounded=0;orthogonalLoop=1;jettySize=auto;html=1;exitX=0.5;exitY=0;exitDx=0;exitDy=0;entryX=1;entryY=1;entryDx=0;entryDy=0;fontSize=16;endArrow=none;endFill=0;" parent="1" source="LelZU1vCG-GNqXFeRRWG-49" target="LelZU1vCG-GNqXFeRRWG-51" edge="1">
                    <mxGeometry relative="1" as="geometry"/>
                </mxCell>
                <mxCell id="LelZU1vCG-GNqXFeRRWG-62" style="edgeStyle=none;rounded=0;orthogonalLoop=1;jettySize=auto;html=1;exitX=0;exitY=0;exitDx=0;exitDy=0;fontSize=16;endArrow=none;endFill=0;" parent="1" source="LelZU1vCG-GNqXFeRRWG-49" target="LelZU1vCG-GNqXFeRRWG-52" edge="1">
                    <mxGeometry relative="1" as="geometry"/>
                </mxCell>
                <mxCell id="LelZU1vCG-GNqXFeRRWG-49" value="" style="ellipse;whiteSpace=wrap;html=1;aspect=fixed;strokeWidth=3;" parent="1" vertex="1">
                    <mxGeometry x="299.5" y="830" width="50" height="50" as="geometry"/>
                </mxCell>
                <mxCell id="LelZU1vCG-GNqXFeRRWG-56" style="edgeStyle=none;rounded=0;orthogonalLoop=1;jettySize=auto;html=1;exitX=0.5;exitY=1;exitDx=0;exitDy=0;entryX=0;entryY=0;entryDx=0;entryDy=0;fontSize=16;endArrow=none;endFill=0;" parent="1" source="LelZU1vCG-GNqXFeRRWG-50" target="LelZU1vCG-GNqXFeRRWG-48" edge="1">
                    <mxGeometry relative="1" as="geometry"/>
                </mxCell>
                <mxCell id="LelZU1vCG-GNqXFeRRWG-63" style="edgeStyle=none;rounded=0;orthogonalLoop=1;jettySize=auto;html=1;exitX=1;exitY=0.5;exitDx=0;exitDy=0;entryX=0;entryY=0.5;entryDx=0;entryDy=0;fontSize=16;endArrow=none;endFill=0;" parent="1" source="LelZU1vCG-GNqXFeRRWG-50" target="LelZU1vCG-GNqXFeRRWG-49" edge="1">
                    <mxGeometry relative="1" as="geometry"/>
                </mxCell>
                <mxCell id="LelZU1vCG-GNqXFeRRWG-64" style="edgeStyle=none;rounded=0;orthogonalLoop=1;jettySize=auto;html=1;exitX=1;exitY=1;exitDx=0;exitDy=0;fontSize=16;endArrow=none;endFill=0;" parent="1" source="LelZU1vCG-GNqXFeRRWG-50" edge="1">
                    <mxGeometry relative="1" as="geometry">
                        <mxPoint x="270.5" y="950" as="targetPoint"/>
                    </mxGeometry>
                </mxCell>
                <mxCell id="LelZU1vCG-GNqXFeRRWG-65" style="edgeStyle=none;rounded=0;orthogonalLoop=1;jettySize=auto;html=1;exitX=1;exitY=0;exitDx=0;exitDy=0;fontSize=16;endArrow=none;endFill=0;" parent="1" source="LelZU1vCG-GNqXFeRRWG-50" target="LelZU1vCG-GNqXFeRRWG-51" edge="1">
                    <mxGeometry relative="1" as="geometry"/>
                </mxCell>
                <mxCell id="LelZU1vCG-GNqXFeRRWG-50" value="" style="ellipse;whiteSpace=wrap;html=1;aspect=fixed;strokeWidth=3;" parent="1" vertex="1">
                    <mxGeometry x="40.5" y="830" width="50" height="50" as="geometry"/>
                </mxCell>
                <mxCell id="LelZU1vCG-GNqXFeRRWG-66" style="edgeStyle=none;rounded=0;orthogonalLoop=1;jettySize=auto;html=1;exitX=0;exitY=1;exitDx=0;exitDy=0;entryX=0.725;entryY=0.047;entryDx=0;entryDy=0;entryPerimeter=0;fontSize=16;endArrow=none;endFill=0;" parent="1" source="LelZU1vCG-GNqXFeRRWG-51" target="LelZU1vCG-GNqXFeRRWG-48" edge="1">
                    <mxGeometry relative="1" as="geometry"/>
                </mxCell>
                <mxCell id="LelZU1vCG-GNqXFeRRWG-67" style="edgeStyle=none;rounded=0;orthogonalLoop=1;jettySize=auto;html=1;entryX=0.347;entryY=0.047;entryDx=0;entryDy=0;entryPerimeter=0;fontSize=16;endArrow=none;endFill=0;" parent="1" source="LelZU1vCG-GNqXFeRRWG-51" target="LelZU1vCG-GNqXFeRRWG-41" edge="1">
                    <mxGeometry relative="1" as="geometry"/>
                </mxCell>
                <mxCell id="LelZU1vCG-GNqXFeRRWG-51" value="" style="ellipse;whiteSpace=wrap;html=1;aspect=fixed;strokeWidth=3;" parent="1" vertex="1">
                    <mxGeometry x="249.5" y="720" width="50" height="50" as="geometry"/>
                </mxCell>
                <mxCell id="LelZU1vCG-GNqXFeRRWG-54" style="edgeStyle=none;rounded=0;orthogonalLoop=1;jettySize=auto;html=1;exitX=1;exitY=0.5;exitDx=0;exitDy=0;fontSize=16;endArrow=none;endFill=0;" parent="1" source="LelZU1vCG-GNqXFeRRWG-52" target="LelZU1vCG-GNqXFeRRWG-51" edge="1">
                    <mxGeometry relative="1" as="geometry"/>
                </mxCell>
                <mxCell id="LelZU1vCG-GNqXFeRRWG-55" style="edgeStyle=none;rounded=0;orthogonalLoop=1;jettySize=auto;html=1;exitX=0;exitY=1;exitDx=0;exitDy=0;entryX=0.5;entryY=0;entryDx=0;entryDy=0;fontSize=16;endArrow=none;endFill=0;" parent="1" source="LelZU1vCG-GNqXFeRRWG-52" target="LelZU1vCG-GNqXFeRRWG-50" edge="1">
                    <mxGeometry relative="1" as="geometry"/>
                </mxCell>
                <mxCell id="LelZU1vCG-GNqXFeRRWG-60" style="edgeStyle=none;rounded=0;orthogonalLoop=1;jettySize=auto;html=1;exitX=0.5;exitY=1;exitDx=0;exitDy=0;entryX=0.5;entryY=0;entryDx=0;entryDy=0;fontSize=16;endArrow=none;endFill=0;" parent="1" source="LelZU1vCG-GNqXFeRRWG-52" target="LelZU1vCG-GNqXFeRRWG-48" edge="1">
                    <mxGeometry relative="1" as="geometry"/>
                </mxCell>
                <mxCell id="LelZU1vCG-GNqXFeRRWG-61" style="edgeStyle=none;rounded=0;orthogonalLoop=1;jettySize=auto;html=1;exitX=1;exitY=1;exitDx=0;exitDy=0;entryX=0;entryY=0;entryDx=0;entryDy=0;fontSize=16;endArrow=none;endFill=0;" parent="1" source="LelZU1vCG-GNqXFeRRWG-52" target="LelZU1vCG-GNqXFeRRWG-41" edge="1">
                    <mxGeometry relative="1" as="geometry"/>
                </mxCell>
                <mxCell id="LelZU1vCG-GNqXFeRRWG-52" value="" style="ellipse;whiteSpace=wrap;html=1;aspect=fixed;strokeWidth=3;" parent="1" vertex="1">
                    <mxGeometry x="90.5" y="720" width="50" height="50" as="geometry"/>
                </mxCell>
                <mxCell id="LelZU1vCG-GNqXFeRRWG-69" value="&lt;font style=&quot;font-size: 16px;&quot;&gt;&lt;b&gt;1&lt;/b&gt;&lt;/font&gt;" style="text;html=1;strokeColor=none;fillColor=none;align=center;verticalAlign=middle;whiteSpace=wrap;rounded=0;strokeWidth=3;" parent="1" vertex="1">
                    <mxGeometry x="85.5" y="730" width="60" height="30" as="geometry"/>
                </mxCell>
                <mxCell id="LelZU1vCG-GNqXFeRRWG-70" value="&lt;font style=&quot;font-size: 16px;&quot;&gt;&lt;b&gt;6&lt;/b&gt;&lt;/font&gt;" style="text;html=1;strokeColor=none;fillColor=none;align=center;verticalAlign=middle;whiteSpace=wrap;rounded=0;strokeWidth=3;" parent="1" vertex="1">
                    <mxGeometry x="255.5" y="950" width="60" height="30" as="geometry"/>
                </mxCell>
                <mxCell id="LelZU1vCG-GNqXFeRRWG-71" value="&lt;font style=&quot;font-size: 16px;&quot;&gt;&lt;b&gt;5&lt;/b&gt;&lt;/font&gt;" style="text;html=1;strokeColor=none;fillColor=none;align=center;verticalAlign=middle;whiteSpace=wrap;rounded=0;strokeWidth=3;" parent="1" vertex="1">
                    <mxGeometry x="85.5" y="950" width="60" height="30" as="geometry"/>
                </mxCell>
                <mxCell id="LelZU1vCG-GNqXFeRRWG-72" value="&lt;font style=&quot;font-size: 16px;&quot;&gt;&lt;b&gt;4&lt;/b&gt;&lt;/font&gt;" style="text;html=1;strokeColor=none;fillColor=none;align=center;verticalAlign=middle;whiteSpace=wrap;rounded=0;strokeWidth=3;" parent="1" vertex="1">
                    <mxGeometry x="294.5" y="840" width="60" height="30" as="geometry"/>
                </mxCell>
                <mxCell id="LelZU1vCG-GNqXFeRRWG-73" value="&lt;font style=&quot;font-size: 16px;&quot;&gt;&lt;b&gt;3&lt;/b&gt;&lt;/font&gt;" style="text;html=1;strokeColor=none;fillColor=none;align=center;verticalAlign=middle;whiteSpace=wrap;rounded=0;strokeWidth=3;" parent="1" vertex="1">
                    <mxGeometry x="35.5" y="840" width="60" height="30" as="geometry"/>
                </mxCell>
                <mxCell id="LelZU1vCG-GNqXFeRRWG-74" value="&lt;font style=&quot;font-size: 16px;&quot;&gt;&lt;b&gt;2&lt;/b&gt;&lt;/font&gt;" style="text;html=1;strokeColor=none;fillColor=none;align=center;verticalAlign=middle;whiteSpace=wrap;rounded=0;strokeWidth=3;" parent="1" vertex="1">
                    <mxGeometry x="244.5" y="730" width="60" height="30" as="geometry"/>
                </mxCell>
                <mxCell id="LelZU1vCG-GNqXFeRRWG-91" value="&lt;font style=&quot;font-size: 20px;&quot;&gt;G(V, E) onde V={1,2,3,4}&lt;br&gt;E={(1,2),(1,3),(1,4), (2,3),(2,4),(3,4)}&lt;br&gt;&lt;/font&gt;" style="text;html=1;strokeColor=none;fillColor=none;align=left;verticalAlign=middle;whiteSpace=wrap;rounded=0;strokeWidth=3;fontSize=16;" parent="1" vertex="1">
                    <mxGeometry x="330" y="120" width="280" height="140" as="geometry"/>
                </mxCell>
                <mxCell id="LelZU1vCG-GNqXFeRRWG-93" value="&lt;font style=&quot;font-size: 20px;&quot;&gt;G(V, E) onde V={1,2,3,4,5}&lt;br&gt;E={(1,2),(1,3),(1,4),(1,5),(2,3),(2,4),(2,5),(3,4),(3,5),(4,5)&lt;br&gt;&lt;/font&gt;" style="text;html=1;strokeColor=none;fillColor=none;align=left;verticalAlign=middle;whiteSpace=wrap;rounded=0;strokeWidth=3;fontSize=16;" parent="1" vertex="1">
                    <mxGeometry x="330" y="420" width="280" height="140" as="geometry"/>
                </mxCell>
                <mxCell id="LelZU1vCG-GNqXFeRRWG-94" value="&lt;font style=&quot;font-size: 20px;&quot;&gt;G(V, E) onde V={1,2,3,4,5,6}&lt;br&gt;E={(1,2),(1,3),(1,4),(1,5),(1,6),(2,3),(2,4),(2,5),(2,6),(3,4),(3,5),(3,6),(4,5),(4,6),(5,6)}&lt;br&gt;&lt;/font&gt;" style="text;html=1;strokeColor=none;fillColor=none;align=left;verticalAlign=middle;whiteSpace=wrap;rounded=0;strokeWidth=3;fontSize=16;" parent="1" vertex="1">
                    <mxGeometry x="370" y="760" width="280" height="140" as="geometry"/>
                </mxCell>
            </root>
        </mxGraphModel>
    </diagram>
    <diagram id="wjo4CqtIFWmAlGieqtuW" name="10">
        <mxGraphModel dx="608" dy="508" grid="1" gridSize="10" guides="1" tooltips="1" connect="1" arrows="1" fold="1" page="1" pageScale="1" pageWidth="827" pageHeight="1169" math="0" shadow="0">
            <root>
                <mxCell id="0"/>
                <mxCell id="1" parent="0"/>
                <mxCell id="-ExkbAMxaG3XpM3-atL9-22" style="rounded=0;orthogonalLoop=1;jettySize=auto;html=1;exitX=1;exitY=0.5;exitDx=0;exitDy=0;fontSize=20;endArrow=none;endFill=0;" parent="1" source="-ExkbAMxaG3XpM3-atL9-16" target="-ExkbAMxaG3XpM3-atL9-18" edge="1">
                    <mxGeometry relative="1" as="geometry"/>
                </mxCell>
                <mxCell id="-ExkbAMxaG3XpM3-atL9-16" value="" style="ellipse;whiteSpace=wrap;html=1;aspect=fixed;strokeWidth=3;" parent="1" vertex="1">
                    <mxGeometry x="80" y="60" width="50" height="50" as="geometry"/>
                </mxCell>
                <mxCell id="-ExkbAMxaG3XpM3-atL9-24" style="edgeStyle=none;rounded=0;orthogonalLoop=1;jettySize=auto;html=1;exitX=0;exitY=0;exitDx=0;exitDy=0;entryX=0.655;entryY=0.988;entryDx=0;entryDy=0;fontSize=20;endArrow=none;endFill=0;entryPerimeter=0;" parent="1" source="-ExkbAMxaG3XpM3-atL9-17" target="-ExkbAMxaG3XpM3-atL9-16" edge="1">
                    <mxGeometry relative="1" as="geometry"/>
                </mxCell>
                <mxCell id="-ExkbAMxaG3XpM3-atL9-17" value="" style="ellipse;whiteSpace=wrap;html=1;aspect=fixed;strokeWidth=3;" parent="1" vertex="1">
                    <mxGeometry x="150" y="170" width="50" height="50" as="geometry"/>
                </mxCell>
                <mxCell id="-ExkbAMxaG3XpM3-atL9-23" style="edgeStyle=none;rounded=0;orthogonalLoop=1;jettySize=auto;html=1;exitX=0.5;exitY=1;exitDx=0;exitDy=0;fontSize=20;endArrow=none;endFill=0;" parent="1" source="-ExkbAMxaG3XpM3-atL9-18" target="-ExkbAMxaG3XpM3-atL9-17" edge="1">
                    <mxGeometry relative="1" as="geometry"/>
                </mxCell>
                <mxCell id="-ExkbAMxaG3XpM3-atL9-18" value="" style="ellipse;whiteSpace=wrap;html=1;aspect=fixed;strokeWidth=3;" parent="1" vertex="1">
                    <mxGeometry x="210" y="60" width="50" height="50" as="geometry"/>
                </mxCell>
                <mxCell id="-ExkbAMxaG3XpM3-atL9-19" value="&lt;font style=&quot;font-size: 16px;&quot;&gt;&lt;b&gt;3&lt;/b&gt;&lt;/font&gt;" style="text;html=1;strokeColor=none;fillColor=none;align=center;verticalAlign=middle;whiteSpace=wrap;rounded=0;strokeWidth=3;" parent="1" vertex="1">
                    <mxGeometry x="145" y="180" width="60" height="30" as="geometry"/>
                </mxCell>
                <mxCell id="-ExkbAMxaG3XpM3-atL9-20" value="&lt;font style=&quot;font-size: 16px;&quot;&gt;&lt;b&gt;2&lt;/b&gt;&lt;/font&gt;" style="text;html=1;strokeColor=none;fillColor=none;align=center;verticalAlign=middle;whiteSpace=wrap;rounded=0;strokeWidth=3;" parent="1" vertex="1">
                    <mxGeometry x="205" y="70" width="60" height="30" as="geometry"/>
                </mxCell>
                <mxCell id="-ExkbAMxaG3XpM3-atL9-21" value="&lt;font style=&quot;font-size: 16px;&quot;&gt;&lt;b&gt;1&lt;/b&gt;&lt;/font&gt;" style="text;html=1;strokeColor=none;fillColor=none;align=center;verticalAlign=middle;whiteSpace=wrap;rounded=0;strokeWidth=3;" parent="1" vertex="1">
                    <mxGeometry x="75" y="70" width="60" height="30" as="geometry"/>
                </mxCell>
                <mxCell id="Kr73TLon-f2Gw-zxViML-1" value="&lt;font style=&quot;font-size: 20px;&quot;&gt;G(V, E) onde V={1,2,3}&lt;br&gt;E={(1,2),(1,3),(2,3)}&lt;br&gt;&lt;/font&gt;" style="text;html=1;strokeColor=none;fillColor=none;align=left;verticalAlign=middle;whiteSpace=wrap;rounded=0;strokeWidth=3;fontSize=16;" parent="1" vertex="1">
                    <mxGeometry x="290" y="50" width="280" height="140" as="geometry"/>
                </mxCell>
            </root>
        </mxGraphModel>
    </diagram>
    <diagram id="Ym0oHrXzVQ0S18WpazFX" name="25">
        <mxGraphModel dx="740" dy="677" grid="1" gridSize="10" guides="1" tooltips="1" connect="1" arrows="1" fold="1" page="1" pageScale="1" pageWidth="827" pageHeight="1169" math="0" shadow="0">
            <root>
                <mxCell id="0"/>
                <mxCell id="1" parent="0"/>
                <mxCell id="Whc8T87mBns-YSsmSYkQ-10" style="edgeStyle=none;rounded=0;orthogonalLoop=1;jettySize=auto;html=1;entryX=0.368;entryY=-0.017;entryDx=0;entryDy=0;entryPerimeter=0;fontSize=13;endArrow=none;endFill=0;startSize=8;endSize=8;exitX=0.5;exitY=1;exitDx=0;exitDy=0;" edge="1" parent="1" source="Whc8T87mBns-YSsmSYkQ-5" target="Whc8T87mBns-YSsmSYkQ-7">
                    <mxGeometry relative="1" as="geometry"/>
                </mxCell>
                <mxCell id="Whc8T87mBns-YSsmSYkQ-13" style="edgeStyle=none;rounded=0;orthogonalLoop=1;jettySize=auto;html=1;exitX=1;exitY=0.5;exitDx=0;exitDy=0;entryX=0;entryY=0.5;entryDx=0;entryDy=0;fontSize=13;endArrow=none;endFill=0;startSize=8;endSize=8;" edge="1" parent="1" source="Whc8T87mBns-YSsmSYkQ-5" target="Whc8T87mBns-YSsmSYkQ-6">
                    <mxGeometry relative="1" as="geometry"/>
                </mxCell>
                <mxCell id="Whc8T87mBns-YSsmSYkQ-5" value="" style="ellipse;whiteSpace=wrap;html=1;fontSize=13;strokeWidth=3;" vertex="1" parent="1">
                    <mxGeometry x="65" y="130" width="120" height="80" as="geometry"/>
                </mxCell>
                <mxCell id="Whc8T87mBns-YSsmSYkQ-6" value="" style="ellipse;whiteSpace=wrap;html=1;fontSize=13;strokeWidth=3;" vertex="1" parent="1">
                    <mxGeometry x="430" y="130" width="120" height="80" as="geometry"/>
                </mxCell>
                <mxCell id="Whc8T87mBns-YSsmSYkQ-7" value="" style="ellipse;whiteSpace=wrap;html=1;fontSize=13;strokeWidth=3;" vertex="1" parent="1">
                    <mxGeometry x="140" y="270" width="120" height="80" as="geometry"/>
                </mxCell>
                <mxCell id="Whc8T87mBns-YSsmSYkQ-9" style="edgeStyle=none;rounded=0;orthogonalLoop=1;jettySize=auto;html=1;exitX=0;exitY=1;exitDx=0;exitDy=0;fontSize=13;endArrow=none;endFill=0;endSize=8;startSize=8;entryX=0.672;entryY=0.048;entryDx=0;entryDy=0;entryPerimeter=0;" edge="1" parent="1" source="Whc8T87mBns-YSsmSYkQ-8" target="Whc8T87mBns-YSsmSYkQ-5">
                    <mxGeometry relative="1" as="geometry"/>
                </mxCell>
                <mxCell id="Whc8T87mBns-YSsmSYkQ-11" style="edgeStyle=none;rounded=0;orthogonalLoop=1;jettySize=auto;html=1;exitX=0.5;exitY=1;exitDx=0;exitDy=0;fontSize=13;endArrow=none;endFill=0;startSize=8;endSize=8;" edge="1" parent="1" source="Whc8T87mBns-YSsmSYkQ-8" target="Whc8T87mBns-YSsmSYkQ-7">
                    <mxGeometry relative="1" as="geometry"/>
                </mxCell>
                <mxCell id="Whc8T87mBns-YSsmSYkQ-12" style="edgeStyle=none;rounded=0;orthogonalLoop=1;jettySize=auto;html=1;exitX=1;exitY=1;exitDx=0;exitDy=0;entryX=0;entryY=0;entryDx=0;entryDy=0;fontSize=13;endArrow=none;endFill=0;startSize=8;endSize=8;" edge="1" parent="1" source="Whc8T87mBns-YSsmSYkQ-8" target="Whc8T87mBns-YSsmSYkQ-6">
                    <mxGeometry relative="1" as="geometry"/>
                </mxCell>
                <mxCell id="Whc8T87mBns-YSsmSYkQ-8" value="" style="ellipse;whiteSpace=wrap;html=1;fontSize=13;strokeWidth=3;" vertex="1" parent="1">
                    <mxGeometry x="245" y="10" width="120" height="80" as="geometry"/>
                </mxCell>
                <mxCell id="Whc8T87mBns-YSsmSYkQ-14" value="&lt;font style=&quot;font-size: 17px;&quot;&gt;Jensen&lt;/font&gt;" style="text;html=1;strokeColor=none;fillColor=none;align=center;verticalAlign=middle;whiteSpace=wrap;rounded=0;strokeWidth=3;" vertex="1" parent="1">
                    <mxGeometry x="260" y="35" width="90" height="30" as="geometry"/>
                </mxCell>
                <mxCell id="Whc8T87mBns-YSsmSYkQ-18" value="&lt;font style=&quot;font-size: 17px;&quot;&gt;Leuzingner&lt;/font&gt;" style="text;html=1;strokeColor=none;fillColor=none;align=center;verticalAlign=middle;whiteSpace=wrap;rounded=0;strokeWidth=3;" vertex="1" parent="1">
                    <mxGeometry x="80" y="155" width="90" height="30" as="geometry"/>
                </mxCell>
                <mxCell id="Whc8T87mBns-YSsmSYkQ-19" value="&lt;font style=&quot;font-size: 17px;&quot;&gt;Medeiros&lt;/font&gt;" style="text;html=1;strokeColor=none;fillColor=none;align=center;verticalAlign=middle;whiteSpace=wrap;rounded=0;strokeWidth=3;" vertex="1" parent="1">
                    <mxGeometry x="445" y="155" width="90" height="30" as="geometry"/>
                </mxCell>
                <mxCell id="Whc8T87mBns-YSsmSYkQ-20" value="&lt;font style=&quot;font-size: 17px;&quot;&gt;Dufour&lt;/font&gt;" style="text;html=1;strokeColor=none;fillColor=none;align=center;verticalAlign=middle;whiteSpace=wrap;rounded=0;strokeWidth=3;" vertex="1" parent="1">
                    <mxGeometry x="155" y="295" width="90" height="30" as="geometry"/>
                </mxCell>
            </root>
        </mxGraphModel>
    </diagram>
    <diagram id="COtn3wY4AXC22q8Gujkx" name="28">
        <mxGraphModel dx="1171" dy="726" grid="1" gridSize="10" guides="1" tooltips="1" connect="1" arrows="1" fold="1" page="1" pageScale="1" pageWidth="827" pageHeight="1169" math="0" shadow="0">
            <root>
                <mxCell id="0"/>
                <mxCell id="1" parent="0"/>
                <mxCell id="D2VLdZtgTbW5Kp4wzoqd-29" style="edgeStyle=none;rounded=0;orthogonalLoop=1;jettySize=auto;html=1;exitX=0;exitY=0.5;exitDx=0;exitDy=0;entryX=1;entryY=0.5;entryDx=0;entryDy=0;endArrow=none;endFill=0;" edge="1" parent="1" source="D2VLdZtgTbW5Kp4wzoqd-10" target="D2VLdZtgTbW5Kp4wzoqd-12">
                    <mxGeometry relative="1" as="geometry"/>
                </mxCell>
                <mxCell id="D2VLdZtgTbW5Kp4wzoqd-10" value="" style="ellipse;whiteSpace=wrap;html=1;aspect=fixed;strokeWidth=3;" vertex="1" parent="1">
                    <mxGeometry x="550" y="90" width="50" height="50" as="geometry"/>
                </mxCell>
                <mxCell id="D2VLdZtgTbW5Kp4wzoqd-27" style="edgeStyle=none;rounded=0;orthogonalLoop=1;jettySize=auto;html=1;exitX=0.5;exitY=0;exitDx=0;exitDy=0;entryX=1;entryY=1;entryDx=0;entryDy=0;endArrow=none;endFill=0;" edge="1" parent="1" source="D2VLdZtgTbW5Kp4wzoqd-11" target="D2VLdZtgTbW5Kp4wzoqd-12">
                    <mxGeometry relative="1" as="geometry"/>
                </mxCell>
                <mxCell id="D2VLdZtgTbW5Kp4wzoqd-28" style="edgeStyle=none;rounded=0;orthogonalLoop=1;jettySize=auto;html=1;exitX=1;exitY=0;exitDx=0;exitDy=0;entryX=0.5;entryY=1;entryDx=0;entryDy=0;endArrow=none;endFill=0;" edge="1" parent="1" source="D2VLdZtgTbW5Kp4wzoqd-11" target="D2VLdZtgTbW5Kp4wzoqd-10">
                    <mxGeometry relative="1" as="geometry"/>
                </mxCell>
                <mxCell id="D2VLdZtgTbW5Kp4wzoqd-11" value="" style="ellipse;whiteSpace=wrap;html=1;aspect=fixed;strokeWidth=3;" vertex="1" parent="1">
                    <mxGeometry x="470" y="240" width="50" height="50" as="geometry"/>
                </mxCell>
                <mxCell id="D2VLdZtgTbW5Kp4wzoqd-12" value="" style="ellipse;whiteSpace=wrap;html=1;aspect=fixed;strokeWidth=3;" vertex="1" parent="1">
                    <mxGeometry x="370" y="90" width="50" height="50" as="geometry"/>
                </mxCell>
                <mxCell id="D2VLdZtgTbW5Kp4wzoqd-25" style="edgeStyle=none;rounded=0;orthogonalLoop=1;jettySize=auto;html=1;exitX=0.5;exitY=0;exitDx=0;exitDy=0;entryX=0.316;entryY=1.003;entryDx=0;entryDy=0;entryPerimeter=0;endArrow=none;endFill=0;" edge="1" parent="1" source="D2VLdZtgTbW5Kp4wzoqd-13" target="D2VLdZtgTbW5Kp4wzoqd-12">
                    <mxGeometry relative="1" as="geometry"/>
                </mxCell>
                <mxCell id="D2VLdZtgTbW5Kp4wzoqd-26" style="edgeStyle=none;rounded=0;orthogonalLoop=1;jettySize=auto;html=1;exitX=1;exitY=0.5;exitDx=0;exitDy=0;endArrow=none;endFill=0;" edge="1" parent="1" source="D2VLdZtgTbW5Kp4wzoqd-13" target="D2VLdZtgTbW5Kp4wzoqd-11">
                    <mxGeometry relative="1" as="geometry"/>
                </mxCell>
                <mxCell id="D2VLdZtgTbW5Kp4wzoqd-13" value="" style="ellipse;whiteSpace=wrap;html=1;aspect=fixed;strokeWidth=3;" vertex="1" parent="1">
                    <mxGeometry x="310" y="250" width="50" height="50" as="geometry"/>
                </mxCell>
                <mxCell id="D2VLdZtgTbW5Kp4wzoqd-21" style="edgeStyle=none;rounded=0;orthogonalLoop=1;jettySize=auto;html=1;exitX=1;exitY=1;exitDx=0;exitDy=0;entryX=0.5;entryY=0;entryDx=0;entryDy=0;endArrow=none;endFill=0;" edge="1" parent="1" source="D2VLdZtgTbW5Kp4wzoqd-14" target="D2VLdZtgTbW5Kp4wzoqd-15">
                    <mxGeometry relative="1" as="geometry"/>
                </mxCell>
                <mxCell id="D2VLdZtgTbW5Kp4wzoqd-22" style="edgeStyle=none;rounded=0;orthogonalLoop=1;jettySize=auto;html=1;exitX=0.5;exitY=1;exitDx=0;exitDy=0;entryX=0.693;entryY=0.003;entryDx=0;entryDy=0;entryPerimeter=0;endArrow=none;endFill=0;" edge="1" parent="1" source="D2VLdZtgTbW5Kp4wzoqd-14" target="D2VLdZtgTbW5Kp4wzoqd-16">
                    <mxGeometry relative="1" as="geometry"/>
                </mxCell>
                <mxCell id="D2VLdZtgTbW5Kp4wzoqd-14" value="" style="ellipse;whiteSpace=wrap;html=1;aspect=fixed;strokeWidth=3;" vertex="1" parent="1">
                    <mxGeometry x="170" y="20" width="50" height="50" as="geometry"/>
                </mxCell>
                <mxCell id="D2VLdZtgTbW5Kp4wzoqd-23" style="edgeStyle=none;rounded=0;orthogonalLoop=1;jettySize=auto;html=1;exitX=0;exitY=1;exitDx=0;exitDy=0;entryX=0.982;entryY=0.358;entryDx=0;entryDy=0;entryPerimeter=0;endArrow=none;endFill=0;" edge="1" parent="1" source="D2VLdZtgTbW5Kp4wzoqd-15" target="D2VLdZtgTbW5Kp4wzoqd-16">
                    <mxGeometry relative="1" as="geometry"/>
                </mxCell>
                <mxCell id="D2VLdZtgTbW5Kp4wzoqd-15" value="" style="ellipse;whiteSpace=wrap;html=1;aspect=fixed;strokeWidth=3;" vertex="1" parent="1">
                    <mxGeometry x="204" y="170" width="50" height="50" as="geometry"/>
                </mxCell>
                <mxCell id="D2VLdZtgTbW5Kp4wzoqd-24" style="edgeStyle=none;rounded=0;orthogonalLoop=1;jettySize=auto;html=1;exitX=1;exitY=0.5;exitDx=0;exitDy=0;entryX=0;entryY=0.5;entryDx=0;entryDy=0;endArrow=none;endFill=0;" edge="1" parent="1" source="D2VLdZtgTbW5Kp4wzoqd-16" target="D2VLdZtgTbW5Kp4wzoqd-13">
                    <mxGeometry relative="1" as="geometry"/>
                </mxCell>
                <mxCell id="D2VLdZtgTbW5Kp4wzoqd-16" value="" style="ellipse;whiteSpace=wrap;html=1;aspect=fixed;strokeWidth=3;" vertex="1" parent="1">
                    <mxGeometry x="70" y="250" width="50" height="50" as="geometry"/>
                </mxCell>
                <mxCell id="D2VLdZtgTbW5Kp4wzoqd-18" style="rounded=0;orthogonalLoop=1;jettySize=auto;html=1;exitX=0.96;exitY=0.336;exitDx=0;exitDy=0;entryX=0.027;entryY=0.714;entryDx=0;entryDy=0;entryPerimeter=0;endArrow=none;endFill=0;exitPerimeter=0;" edge="1" parent="1" source="D2VLdZtgTbW5Kp4wzoqd-17" target="D2VLdZtgTbW5Kp4wzoqd-14">
                    <mxGeometry relative="1" as="geometry"/>
                </mxCell>
                <mxCell id="D2VLdZtgTbW5Kp4wzoqd-19" style="edgeStyle=none;rounded=0;orthogonalLoop=1;jettySize=auto;html=1;entryX=0.036;entryY=0.358;entryDx=0;entryDy=0;endArrow=none;endFill=0;entryPerimeter=0;" edge="1" parent="1" target="D2VLdZtgTbW5Kp4wzoqd-15">
                    <mxGeometry relative="1" as="geometry">
                        <mxPoint x="60" y="110" as="sourcePoint"/>
                    </mxGeometry>
                </mxCell>
                <mxCell id="D2VLdZtgTbW5Kp4wzoqd-20" style="edgeStyle=none;rounded=0;orthogonalLoop=1;jettySize=auto;html=1;exitX=0.5;exitY=1;exitDx=0;exitDy=0;entryX=0.338;entryY=0.025;entryDx=0;entryDy=0;entryPerimeter=0;endArrow=none;endFill=0;" edge="1" parent="1" source="D2VLdZtgTbW5Kp4wzoqd-17" target="D2VLdZtgTbW5Kp4wzoqd-16">
                    <mxGeometry relative="1" as="geometry"/>
                </mxCell>
                <mxCell id="D2VLdZtgTbW5Kp4wzoqd-17" value="" style="ellipse;whiteSpace=wrap;html=1;aspect=fixed;strokeWidth=3;" vertex="1" parent="1">
                    <mxGeometry x="20" y="80" width="50" height="50" as="geometry"/>
                </mxCell>
                <mxCell id="D2VLdZtgTbW5Kp4wzoqd-30" value="&lt;font style=&quot;font-size: 16px;&quot;&gt;&lt;b&gt;8&lt;/b&gt;&lt;/font&gt;" style="text;html=1;strokeColor=none;fillColor=none;align=center;verticalAlign=middle;whiteSpace=wrap;rounded=0;strokeWidth=3;" vertex="1" parent="1">
                    <mxGeometry x="545" y="100" width="60" height="30" as="geometry"/>
                </mxCell>
                <mxCell id="D2VLdZtgTbW5Kp4wzoqd-31" value="&lt;font style=&quot;font-size: 16px;&quot;&gt;&lt;b&gt;7&lt;/b&gt;&lt;/font&gt;" style="text;html=1;strokeColor=none;fillColor=none;align=center;verticalAlign=middle;whiteSpace=wrap;rounded=0;strokeWidth=3;" vertex="1" parent="1">
                    <mxGeometry x="465" y="250" width="60" height="30" as="geometry"/>
                </mxCell>
                <mxCell id="D2VLdZtgTbW5Kp4wzoqd-32" value="&lt;font style=&quot;font-size: 16px;&quot;&gt;&lt;b&gt;6&lt;/b&gt;&lt;/font&gt;" style="text;html=1;strokeColor=none;fillColor=none;align=center;verticalAlign=middle;whiteSpace=wrap;rounded=0;strokeWidth=3;" vertex="1" parent="1">
                    <mxGeometry x="305" y="260" width="60" height="30" as="geometry"/>
                </mxCell>
                <mxCell id="D2VLdZtgTbW5Kp4wzoqd-33" value="&lt;font style=&quot;font-size: 16px;&quot;&gt;&lt;b&gt;5&lt;/b&gt;&lt;/font&gt;" style="text;html=1;strokeColor=none;fillColor=none;align=center;verticalAlign=middle;whiteSpace=wrap;rounded=0;strokeWidth=3;" vertex="1" parent="1">
                    <mxGeometry x="365" y="100" width="60" height="30" as="geometry"/>
                </mxCell>
                <mxCell id="D2VLdZtgTbW5Kp4wzoqd-34" value="&lt;font style=&quot;font-size: 16px;&quot;&gt;&lt;b&gt;4&lt;/b&gt;&lt;/font&gt;" style="text;html=1;strokeColor=none;fillColor=none;align=center;verticalAlign=middle;whiteSpace=wrap;rounded=0;strokeWidth=3;" vertex="1" parent="1">
                    <mxGeometry x="65" y="260" width="60" height="30" as="geometry"/>
                </mxCell>
                <mxCell id="D2VLdZtgTbW5Kp4wzoqd-35" value="&lt;font style=&quot;font-size: 16px;&quot;&gt;&lt;b&gt;3&lt;/b&gt;&lt;/font&gt;" style="text;html=1;strokeColor=none;fillColor=none;align=center;verticalAlign=middle;whiteSpace=wrap;rounded=0;strokeWidth=3;" vertex="1" parent="1">
                    <mxGeometry x="199" y="180" width="60" height="30" as="geometry"/>
                </mxCell>
                <mxCell id="D2VLdZtgTbW5Kp4wzoqd-36" value="&lt;font style=&quot;font-size: 16px;&quot;&gt;&lt;b&gt;2&lt;/b&gt;&lt;/font&gt;" style="text;html=1;strokeColor=none;fillColor=none;align=center;verticalAlign=middle;whiteSpace=wrap;rounded=0;strokeWidth=3;" vertex="1" parent="1">
                    <mxGeometry x="165" y="30" width="60" height="30" as="geometry"/>
                </mxCell>
                <mxCell id="D2VLdZtgTbW5Kp4wzoqd-37" value="&lt;font style=&quot;font-size: 16px;&quot;&gt;&lt;b&gt;8&lt;/b&gt;&lt;/font&gt;" style="text;html=1;strokeColor=none;fillColor=none;align=center;verticalAlign=middle;whiteSpace=wrap;rounded=0;strokeWidth=3;" vertex="1" parent="1">
                    <mxGeometry x="500" y="370" width="60" height="30" as="geometry"/>
                </mxCell>
                <mxCell id="D2VLdZtgTbW5Kp4wzoqd-66" value="&lt;font style=&quot;font-size: 16px;&quot;&gt;&lt;b&gt;7&lt;/b&gt;&lt;/font&gt;" style="text;html=1;strokeColor=none;fillColor=none;align=center;verticalAlign=middle;whiteSpace=wrap;rounded=0;strokeWidth=3;" vertex="1" parent="1">
                    <mxGeometry x="440" y="370" width="60" height="30" as="geometry"/>
                </mxCell>
                <mxCell id="D2VLdZtgTbW5Kp4wzoqd-67" value="&lt;font style=&quot;font-size: 16px;&quot;&gt;&lt;b&gt;6&lt;/b&gt;&lt;/font&gt;" style="text;html=1;strokeColor=none;fillColor=none;align=center;verticalAlign=middle;whiteSpace=wrap;rounded=0;strokeWidth=3;" vertex="1" parent="1">
                    <mxGeometry x="380" y="370" width="60" height="30" as="geometry"/>
                </mxCell>
                <mxCell id="D2VLdZtgTbW5Kp4wzoqd-68" value="&lt;font style=&quot;font-size: 16px;&quot;&gt;&lt;b&gt;5&lt;/b&gt;&lt;/font&gt;" style="text;html=1;strokeColor=none;fillColor=none;align=center;verticalAlign=middle;whiteSpace=wrap;rounded=0;strokeWidth=3;" vertex="1" parent="1">
                    <mxGeometry x="320" y="370" width="60" height="30" as="geometry"/>
                </mxCell>
                <mxCell id="D2VLdZtgTbW5Kp4wzoqd-69" value="&lt;font style=&quot;font-size: 16px;&quot;&gt;&lt;b&gt;4&lt;/b&gt;&lt;/font&gt;" style="text;html=1;strokeColor=none;fillColor=none;align=center;verticalAlign=middle;whiteSpace=wrap;rounded=0;strokeWidth=3;" vertex="1" parent="1">
                    <mxGeometry x="260" y="370" width="60" height="30" as="geometry"/>
                </mxCell>
                <mxCell id="D2VLdZtgTbW5Kp4wzoqd-70" value="&lt;font style=&quot;font-size: 16px;&quot;&gt;&lt;b&gt;3&lt;/b&gt;&lt;/font&gt;" style="text;html=1;strokeColor=none;fillColor=none;align=center;verticalAlign=middle;whiteSpace=wrap;rounded=0;strokeWidth=3;" vertex="1" parent="1">
                    <mxGeometry x="200" y="370" width="60" height="30" as="geometry"/>
                </mxCell>
                <mxCell id="D2VLdZtgTbW5Kp4wzoqd-71" value="&lt;font style=&quot;font-size: 16px;&quot;&gt;&lt;b&gt;2&lt;/b&gt;&lt;/font&gt;" style="text;html=1;strokeColor=none;fillColor=none;align=center;verticalAlign=middle;whiteSpace=wrap;rounded=0;strokeWidth=3;" vertex="1" parent="1">
                    <mxGeometry x="140" y="370" width="60" height="30" as="geometry"/>
                </mxCell>
                <mxCell id="D2VLdZtgTbW5Kp4wzoqd-72" value="&lt;font style=&quot;font-size: 16px;&quot;&gt;&lt;b&gt;1&lt;/b&gt;&lt;/font&gt;" style="text;html=1;strokeColor=none;fillColor=none;align=center;verticalAlign=middle;whiteSpace=wrap;rounded=0;strokeWidth=3;" vertex="1" parent="1">
                    <mxGeometry x="80" y="370" width="60" height="30" as="geometry"/>
                </mxCell>
                <mxCell id="D2VLdZtgTbW5Kp4wzoqd-75" value="" style="shape=table;startSize=0;container=1;collapsible=0;childLayout=tableLayout;" vertex="1" parent="1">
                    <mxGeometry x="80" y="400" width="480" height="320" as="geometry"/>
                </mxCell>
                <mxCell id="D2VLdZtgTbW5Kp4wzoqd-76" value="" style="shape=tableRow;horizontal=0;startSize=0;swimlaneHead=0;swimlaneBody=0;top=0;left=0;bottom=0;right=0;collapsible=0;dropTarget=0;fillColor=none;points=[[0,0.5],[1,0.5]];portConstraint=eastwest;" vertex="1" parent="D2VLdZtgTbW5Kp4wzoqd-75">
                    <mxGeometry width="480" height="40" as="geometry"/>
                </mxCell>
                <mxCell id="D2VLdZtgTbW5Kp4wzoqd-77" value="0" style="shape=partialRectangle;html=1;whiteSpace=wrap;connectable=0;overflow=hidden;fillColor=none;top=0;left=0;bottom=0;right=0;pointerEvents=1;" vertex="1" parent="D2VLdZtgTbW5Kp4wzoqd-76">
                    <mxGeometry width="60" height="40" as="geometry">
                        <mxRectangle width="60" height="40" as="alternateBounds"/>
                    </mxGeometry>
                </mxCell>
                <mxCell id="D2VLdZtgTbW5Kp4wzoqd-78" value="1" style="shape=partialRectangle;html=1;whiteSpace=wrap;connectable=0;overflow=hidden;fillColor=none;top=0;left=0;bottom=0;right=0;pointerEvents=1;" vertex="1" parent="D2VLdZtgTbW5Kp4wzoqd-76">
                    <mxGeometry x="60" width="60" height="40" as="geometry">
                        <mxRectangle width="60" height="40" as="alternateBounds"/>
                    </mxGeometry>
                </mxCell>
                <mxCell id="D2VLdZtgTbW5Kp4wzoqd-79" value="1" style="shape=partialRectangle;html=1;whiteSpace=wrap;connectable=0;overflow=hidden;fillColor=none;top=0;left=0;bottom=0;right=0;pointerEvents=1;" vertex="1" parent="D2VLdZtgTbW5Kp4wzoqd-76">
                    <mxGeometry x="120" width="60" height="40" as="geometry">
                        <mxRectangle width="60" height="40" as="alternateBounds"/>
                    </mxGeometry>
                </mxCell>
                <mxCell id="D2VLdZtgTbW5Kp4wzoqd-80" value="1" style="shape=partialRectangle;html=1;whiteSpace=wrap;connectable=0;overflow=hidden;fillColor=none;top=0;left=0;bottom=0;right=0;pointerEvents=1;" vertex="1" parent="D2VLdZtgTbW5Kp4wzoqd-76">
                    <mxGeometry x="180" width="60" height="40" as="geometry">
                        <mxRectangle width="60" height="40" as="alternateBounds"/>
                    </mxGeometry>
                </mxCell>
                <mxCell id="D2VLdZtgTbW5Kp4wzoqd-81" value="0" style="shape=partialRectangle;html=1;whiteSpace=wrap;connectable=0;overflow=hidden;fillColor=none;top=0;left=0;bottom=0;right=0;pointerEvents=1;" vertex="1" parent="D2VLdZtgTbW5Kp4wzoqd-76">
                    <mxGeometry x="240" width="60" height="40" as="geometry">
                        <mxRectangle width="60" height="40" as="alternateBounds"/>
                    </mxGeometry>
                </mxCell>
                <mxCell id="D2VLdZtgTbW5Kp4wzoqd-82" value="0" style="shape=partialRectangle;html=1;whiteSpace=wrap;connectable=0;overflow=hidden;fillColor=none;top=0;left=0;bottom=0;right=0;pointerEvents=1;" vertex="1" parent="D2VLdZtgTbW5Kp4wzoqd-76">
                    <mxGeometry x="300" width="60" height="40" as="geometry">
                        <mxRectangle width="60" height="40" as="alternateBounds"/>
                    </mxGeometry>
                </mxCell>
                <mxCell id="D2VLdZtgTbW5Kp4wzoqd-83" value="0" style="shape=partialRectangle;html=1;whiteSpace=wrap;connectable=0;overflow=hidden;fillColor=none;top=0;left=0;bottom=0;right=0;pointerEvents=1;" vertex="1" parent="D2VLdZtgTbW5Kp4wzoqd-76">
                    <mxGeometry x="360" width="60" height="40" as="geometry">
                        <mxRectangle width="60" height="40" as="alternateBounds"/>
                    </mxGeometry>
                </mxCell>
                <mxCell id="D2VLdZtgTbW5Kp4wzoqd-84" value="0" style="shape=partialRectangle;html=1;whiteSpace=wrap;connectable=0;overflow=hidden;fillColor=none;top=0;left=0;bottom=0;right=0;pointerEvents=1;" vertex="1" parent="D2VLdZtgTbW5Kp4wzoqd-76">
                    <mxGeometry x="420" width="60" height="40" as="geometry">
                        <mxRectangle width="60" height="40" as="alternateBounds"/>
                    </mxGeometry>
                </mxCell>
                <mxCell id="D2VLdZtgTbW5Kp4wzoqd-85" value="" style="shape=tableRow;horizontal=0;startSize=0;swimlaneHead=0;swimlaneBody=0;top=0;left=0;bottom=0;right=0;collapsible=0;dropTarget=0;fillColor=none;points=[[0,0.5],[1,0.5]];portConstraint=eastwest;" vertex="1" parent="D2VLdZtgTbW5Kp4wzoqd-75">
                    <mxGeometry y="40" width="480" height="40" as="geometry"/>
                </mxCell>
                <mxCell id="D2VLdZtgTbW5Kp4wzoqd-86" value="1" style="shape=partialRectangle;html=1;whiteSpace=wrap;connectable=0;overflow=hidden;fillColor=none;top=0;left=0;bottom=0;right=0;pointerEvents=1;" vertex="1" parent="D2VLdZtgTbW5Kp4wzoqd-85">
                    <mxGeometry width="60" height="40" as="geometry">
                        <mxRectangle width="60" height="40" as="alternateBounds"/>
                    </mxGeometry>
                </mxCell>
                <mxCell id="D2VLdZtgTbW5Kp4wzoqd-87" value="0" style="shape=partialRectangle;html=1;whiteSpace=wrap;connectable=0;overflow=hidden;fillColor=none;top=0;left=0;bottom=0;right=0;pointerEvents=1;" vertex="1" parent="D2VLdZtgTbW5Kp4wzoqd-85">
                    <mxGeometry x="60" width="60" height="40" as="geometry">
                        <mxRectangle width="60" height="40" as="alternateBounds"/>
                    </mxGeometry>
                </mxCell>
                <mxCell id="D2VLdZtgTbW5Kp4wzoqd-88" value="1" style="shape=partialRectangle;html=1;whiteSpace=wrap;connectable=0;overflow=hidden;fillColor=none;top=0;left=0;bottom=0;right=0;pointerEvents=1;" vertex="1" parent="D2VLdZtgTbW5Kp4wzoqd-85">
                    <mxGeometry x="120" width="60" height="40" as="geometry">
                        <mxRectangle width="60" height="40" as="alternateBounds"/>
                    </mxGeometry>
                </mxCell>
                <mxCell id="D2VLdZtgTbW5Kp4wzoqd-89" value="1" style="shape=partialRectangle;html=1;whiteSpace=wrap;connectable=0;overflow=hidden;fillColor=none;top=0;left=0;bottom=0;right=0;pointerEvents=1;" vertex="1" parent="D2VLdZtgTbW5Kp4wzoqd-85">
                    <mxGeometry x="180" width="60" height="40" as="geometry">
                        <mxRectangle width="60" height="40" as="alternateBounds"/>
                    </mxGeometry>
                </mxCell>
                <mxCell id="D2VLdZtgTbW5Kp4wzoqd-90" value="0" style="shape=partialRectangle;html=1;whiteSpace=wrap;connectable=0;overflow=hidden;fillColor=none;top=0;left=0;bottom=0;right=0;pointerEvents=1;" vertex="1" parent="D2VLdZtgTbW5Kp4wzoqd-85">
                    <mxGeometry x="240" width="60" height="40" as="geometry">
                        <mxRectangle width="60" height="40" as="alternateBounds"/>
                    </mxGeometry>
                </mxCell>
                <mxCell id="D2VLdZtgTbW5Kp4wzoqd-91" value="0" style="shape=partialRectangle;html=1;whiteSpace=wrap;connectable=0;overflow=hidden;fillColor=none;top=0;left=0;bottom=0;right=0;pointerEvents=1;" vertex="1" parent="D2VLdZtgTbW5Kp4wzoqd-85">
                    <mxGeometry x="300" width="60" height="40" as="geometry">
                        <mxRectangle width="60" height="40" as="alternateBounds"/>
                    </mxGeometry>
                </mxCell>
                <mxCell id="D2VLdZtgTbW5Kp4wzoqd-92" value="0" style="shape=partialRectangle;html=1;whiteSpace=wrap;connectable=0;overflow=hidden;fillColor=none;top=0;left=0;bottom=0;right=0;pointerEvents=1;" vertex="1" parent="D2VLdZtgTbW5Kp4wzoqd-85">
                    <mxGeometry x="360" width="60" height="40" as="geometry">
                        <mxRectangle width="60" height="40" as="alternateBounds"/>
                    </mxGeometry>
                </mxCell>
                <mxCell id="D2VLdZtgTbW5Kp4wzoqd-93" value="0" style="shape=partialRectangle;html=1;whiteSpace=wrap;connectable=0;overflow=hidden;fillColor=none;top=0;left=0;bottom=0;right=0;pointerEvents=1;" vertex="1" parent="D2VLdZtgTbW5Kp4wzoqd-85">
                    <mxGeometry x="420" width="60" height="40" as="geometry">
                        <mxRectangle width="60" height="40" as="alternateBounds"/>
                    </mxGeometry>
                </mxCell>
                <mxCell id="D2VLdZtgTbW5Kp4wzoqd-94" value="" style="shape=tableRow;horizontal=0;startSize=0;swimlaneHead=0;swimlaneBody=0;top=0;left=0;bottom=0;right=0;collapsible=0;dropTarget=0;fillColor=none;points=[[0,0.5],[1,0.5]];portConstraint=eastwest;" vertex="1" parent="D2VLdZtgTbW5Kp4wzoqd-75">
                    <mxGeometry y="80" width="480" height="40" as="geometry"/>
                </mxCell>
                <mxCell id="D2VLdZtgTbW5Kp4wzoqd-95" value="1" style="shape=partialRectangle;html=1;whiteSpace=wrap;connectable=0;overflow=hidden;fillColor=none;top=0;left=0;bottom=0;right=0;pointerEvents=1;" vertex="1" parent="D2VLdZtgTbW5Kp4wzoqd-94">
                    <mxGeometry width="60" height="40" as="geometry">
                        <mxRectangle width="60" height="40" as="alternateBounds"/>
                    </mxGeometry>
                </mxCell>
                <mxCell id="D2VLdZtgTbW5Kp4wzoqd-96" value="1" style="shape=partialRectangle;html=1;whiteSpace=wrap;connectable=0;overflow=hidden;fillColor=none;top=0;left=0;bottom=0;right=0;pointerEvents=1;" vertex="1" parent="D2VLdZtgTbW5Kp4wzoqd-94">
                    <mxGeometry x="60" width="60" height="40" as="geometry">
                        <mxRectangle width="60" height="40" as="alternateBounds"/>
                    </mxGeometry>
                </mxCell>
                <mxCell id="D2VLdZtgTbW5Kp4wzoqd-97" value="0" style="shape=partialRectangle;html=1;whiteSpace=wrap;connectable=0;overflow=hidden;fillColor=none;top=0;left=0;bottom=0;right=0;pointerEvents=1;" vertex="1" parent="D2VLdZtgTbW5Kp4wzoqd-94">
                    <mxGeometry x="120" width="60" height="40" as="geometry">
                        <mxRectangle width="60" height="40" as="alternateBounds"/>
                    </mxGeometry>
                </mxCell>
                <mxCell id="D2VLdZtgTbW5Kp4wzoqd-98" value="1" style="shape=partialRectangle;html=1;whiteSpace=wrap;connectable=0;overflow=hidden;fillColor=none;top=0;left=0;bottom=0;right=0;pointerEvents=1;" vertex="1" parent="D2VLdZtgTbW5Kp4wzoqd-94">
                    <mxGeometry x="180" width="60" height="40" as="geometry">
                        <mxRectangle width="60" height="40" as="alternateBounds"/>
                    </mxGeometry>
                </mxCell>
                <mxCell id="D2VLdZtgTbW5Kp4wzoqd-99" value="0" style="shape=partialRectangle;html=1;whiteSpace=wrap;connectable=0;overflow=hidden;fillColor=none;top=0;left=0;bottom=0;right=0;pointerEvents=1;" vertex="1" parent="D2VLdZtgTbW5Kp4wzoqd-94">
                    <mxGeometry x="240" width="60" height="40" as="geometry">
                        <mxRectangle width="60" height="40" as="alternateBounds"/>
                    </mxGeometry>
                </mxCell>
                <mxCell id="D2VLdZtgTbW5Kp4wzoqd-100" value="0" style="shape=partialRectangle;html=1;whiteSpace=wrap;connectable=0;overflow=hidden;fillColor=none;top=0;left=0;bottom=0;right=0;pointerEvents=1;" vertex="1" parent="D2VLdZtgTbW5Kp4wzoqd-94">
                    <mxGeometry x="300" width="60" height="40" as="geometry">
                        <mxRectangle width="60" height="40" as="alternateBounds"/>
                    </mxGeometry>
                </mxCell>
                <mxCell id="D2VLdZtgTbW5Kp4wzoqd-101" value="0" style="shape=partialRectangle;html=1;whiteSpace=wrap;connectable=0;overflow=hidden;fillColor=none;top=0;left=0;bottom=0;right=0;pointerEvents=1;" vertex="1" parent="D2VLdZtgTbW5Kp4wzoqd-94">
                    <mxGeometry x="360" width="60" height="40" as="geometry">
                        <mxRectangle width="60" height="40" as="alternateBounds"/>
                    </mxGeometry>
                </mxCell>
                <mxCell id="D2VLdZtgTbW5Kp4wzoqd-102" value="0" style="shape=partialRectangle;html=1;whiteSpace=wrap;connectable=0;overflow=hidden;fillColor=none;top=0;left=0;bottom=0;right=0;pointerEvents=1;" vertex="1" parent="D2VLdZtgTbW5Kp4wzoqd-94">
                    <mxGeometry x="420" width="60" height="40" as="geometry">
                        <mxRectangle width="60" height="40" as="alternateBounds"/>
                    </mxGeometry>
                </mxCell>
                <mxCell id="D2VLdZtgTbW5Kp4wzoqd-103" value="" style="shape=tableRow;horizontal=0;startSize=0;swimlaneHead=0;swimlaneBody=0;top=0;left=0;bottom=0;right=0;collapsible=0;dropTarget=0;fillColor=none;points=[[0,0.5],[1,0.5]];portConstraint=eastwest;" vertex="1" parent="D2VLdZtgTbW5Kp4wzoqd-75">
                    <mxGeometry y="120" width="480" height="40" as="geometry"/>
                </mxCell>
                <mxCell id="D2VLdZtgTbW5Kp4wzoqd-104" value="1" style="shape=partialRectangle;html=1;whiteSpace=wrap;connectable=0;overflow=hidden;fillColor=none;top=0;left=0;bottom=0;right=0;pointerEvents=1;" vertex="1" parent="D2VLdZtgTbW5Kp4wzoqd-103">
                    <mxGeometry width="60" height="40" as="geometry">
                        <mxRectangle width="60" height="40" as="alternateBounds"/>
                    </mxGeometry>
                </mxCell>
                <mxCell id="D2VLdZtgTbW5Kp4wzoqd-105" value="1" style="shape=partialRectangle;html=1;whiteSpace=wrap;connectable=0;overflow=hidden;fillColor=none;top=0;left=0;bottom=0;right=0;pointerEvents=1;" vertex="1" parent="D2VLdZtgTbW5Kp4wzoqd-103">
                    <mxGeometry x="60" width="60" height="40" as="geometry">
                        <mxRectangle width="60" height="40" as="alternateBounds"/>
                    </mxGeometry>
                </mxCell>
                <mxCell id="D2VLdZtgTbW5Kp4wzoqd-106" value="1" style="shape=partialRectangle;html=1;whiteSpace=wrap;connectable=0;overflow=hidden;fillColor=none;top=0;left=0;bottom=0;right=0;pointerEvents=1;" vertex="1" parent="D2VLdZtgTbW5Kp4wzoqd-103">
                    <mxGeometry x="120" width="60" height="40" as="geometry">
                        <mxRectangle width="60" height="40" as="alternateBounds"/>
                    </mxGeometry>
                </mxCell>
                <mxCell id="D2VLdZtgTbW5Kp4wzoqd-107" value="0" style="shape=partialRectangle;html=1;whiteSpace=wrap;connectable=0;overflow=hidden;fillColor=none;top=0;left=0;bottom=0;right=0;pointerEvents=1;" vertex="1" parent="D2VLdZtgTbW5Kp4wzoqd-103">
                    <mxGeometry x="180" width="60" height="40" as="geometry">
                        <mxRectangle width="60" height="40" as="alternateBounds"/>
                    </mxGeometry>
                </mxCell>
                <mxCell id="D2VLdZtgTbW5Kp4wzoqd-108" value="0" style="shape=partialRectangle;html=1;whiteSpace=wrap;connectable=0;overflow=hidden;fillColor=none;top=0;left=0;bottom=0;right=0;pointerEvents=1;" vertex="1" parent="D2VLdZtgTbW5Kp4wzoqd-103">
                    <mxGeometry x="240" width="60" height="40" as="geometry">
                        <mxRectangle width="60" height="40" as="alternateBounds"/>
                    </mxGeometry>
                </mxCell>
                <mxCell id="D2VLdZtgTbW5Kp4wzoqd-109" value="1" style="shape=partialRectangle;html=1;whiteSpace=wrap;connectable=0;overflow=hidden;fillColor=none;top=0;left=0;bottom=0;right=0;pointerEvents=1;" vertex="1" parent="D2VLdZtgTbW5Kp4wzoqd-103">
                    <mxGeometry x="300" width="60" height="40" as="geometry">
                        <mxRectangle width="60" height="40" as="alternateBounds"/>
                    </mxGeometry>
                </mxCell>
                <mxCell id="D2VLdZtgTbW5Kp4wzoqd-110" value="0" style="shape=partialRectangle;html=1;whiteSpace=wrap;connectable=0;overflow=hidden;fillColor=none;top=0;left=0;bottom=0;right=0;pointerEvents=1;" vertex="1" parent="D2VLdZtgTbW5Kp4wzoqd-103">
                    <mxGeometry x="360" width="60" height="40" as="geometry">
                        <mxRectangle width="60" height="40" as="alternateBounds"/>
                    </mxGeometry>
                </mxCell>
                <mxCell id="D2VLdZtgTbW5Kp4wzoqd-111" value="0" style="shape=partialRectangle;html=1;whiteSpace=wrap;connectable=0;overflow=hidden;fillColor=none;top=0;left=0;bottom=0;right=0;pointerEvents=1;" vertex="1" parent="D2VLdZtgTbW5Kp4wzoqd-103">
                    <mxGeometry x="420" width="60" height="40" as="geometry">
                        <mxRectangle width="60" height="40" as="alternateBounds"/>
                    </mxGeometry>
                </mxCell>
                <mxCell id="D2VLdZtgTbW5Kp4wzoqd-112" value="" style="shape=tableRow;horizontal=0;startSize=0;swimlaneHead=0;swimlaneBody=0;top=0;left=0;bottom=0;right=0;collapsible=0;dropTarget=0;fillColor=none;points=[[0,0.5],[1,0.5]];portConstraint=eastwest;" vertex="1" parent="D2VLdZtgTbW5Kp4wzoqd-75">
                    <mxGeometry y="160" width="480" height="40" as="geometry"/>
                </mxCell>
                <mxCell id="D2VLdZtgTbW5Kp4wzoqd-113" value="0" style="shape=partialRectangle;html=1;whiteSpace=wrap;connectable=0;overflow=hidden;fillColor=none;top=0;left=0;bottom=0;right=0;pointerEvents=1;" vertex="1" parent="D2VLdZtgTbW5Kp4wzoqd-112">
                    <mxGeometry width="60" height="40" as="geometry">
                        <mxRectangle width="60" height="40" as="alternateBounds"/>
                    </mxGeometry>
                </mxCell>
                <mxCell id="D2VLdZtgTbW5Kp4wzoqd-114" value="0" style="shape=partialRectangle;html=1;whiteSpace=wrap;connectable=0;overflow=hidden;fillColor=none;top=0;left=0;bottom=0;right=0;pointerEvents=1;" vertex="1" parent="D2VLdZtgTbW5Kp4wzoqd-112">
                    <mxGeometry x="60" width="60" height="40" as="geometry">
                        <mxRectangle width="60" height="40" as="alternateBounds"/>
                    </mxGeometry>
                </mxCell>
                <mxCell id="D2VLdZtgTbW5Kp4wzoqd-115" value="0" style="shape=partialRectangle;html=1;whiteSpace=wrap;connectable=0;overflow=hidden;fillColor=none;top=0;left=0;bottom=0;right=0;pointerEvents=1;" vertex="1" parent="D2VLdZtgTbW5Kp4wzoqd-112">
                    <mxGeometry x="120" width="60" height="40" as="geometry">
                        <mxRectangle width="60" height="40" as="alternateBounds"/>
                    </mxGeometry>
                </mxCell>
                <mxCell id="D2VLdZtgTbW5Kp4wzoqd-116" value="0" style="shape=partialRectangle;html=1;whiteSpace=wrap;connectable=0;overflow=hidden;fillColor=none;top=0;left=0;bottom=0;right=0;pointerEvents=1;" vertex="1" parent="D2VLdZtgTbW5Kp4wzoqd-112">
                    <mxGeometry x="180" width="60" height="40" as="geometry">
                        <mxRectangle width="60" height="40" as="alternateBounds"/>
                    </mxGeometry>
                </mxCell>
                <mxCell id="D2VLdZtgTbW5Kp4wzoqd-117" value="0" style="shape=partialRectangle;html=1;whiteSpace=wrap;connectable=0;overflow=hidden;fillColor=none;top=0;left=0;bottom=0;right=0;pointerEvents=1;" vertex="1" parent="D2VLdZtgTbW5Kp4wzoqd-112">
                    <mxGeometry x="240" width="60" height="40" as="geometry">
                        <mxRectangle width="60" height="40" as="alternateBounds"/>
                    </mxGeometry>
                </mxCell>
                <mxCell id="D2VLdZtgTbW5Kp4wzoqd-118" value="1" style="shape=partialRectangle;html=1;whiteSpace=wrap;connectable=0;overflow=hidden;fillColor=none;top=0;left=0;bottom=0;right=0;pointerEvents=1;" vertex="1" parent="D2VLdZtgTbW5Kp4wzoqd-112">
                    <mxGeometry x="300" width="60" height="40" as="geometry">
                        <mxRectangle width="60" height="40" as="alternateBounds"/>
                    </mxGeometry>
                </mxCell>
                <mxCell id="D2VLdZtgTbW5Kp4wzoqd-119" value="1" style="shape=partialRectangle;html=1;whiteSpace=wrap;connectable=0;overflow=hidden;fillColor=none;top=0;left=0;bottom=0;right=0;pointerEvents=1;" vertex="1" parent="D2VLdZtgTbW5Kp4wzoqd-112">
                    <mxGeometry x="360" width="60" height="40" as="geometry">
                        <mxRectangle width="60" height="40" as="alternateBounds"/>
                    </mxGeometry>
                </mxCell>
                <mxCell id="D2VLdZtgTbW5Kp4wzoqd-120" value="1" style="shape=partialRectangle;html=1;whiteSpace=wrap;connectable=0;overflow=hidden;fillColor=none;top=0;left=0;bottom=0;right=0;pointerEvents=1;" vertex="1" parent="D2VLdZtgTbW5Kp4wzoqd-112">
                    <mxGeometry x="420" width="60" height="40" as="geometry">
                        <mxRectangle width="60" height="40" as="alternateBounds"/>
                    </mxGeometry>
                </mxCell>
                <mxCell id="D2VLdZtgTbW5Kp4wzoqd-121" value="" style="shape=tableRow;horizontal=0;startSize=0;swimlaneHead=0;swimlaneBody=0;top=0;left=0;bottom=0;right=0;collapsible=0;dropTarget=0;fillColor=none;points=[[0,0.5],[1,0.5]];portConstraint=eastwest;" vertex="1" parent="D2VLdZtgTbW5Kp4wzoqd-75">
                    <mxGeometry y="200" width="480" height="40" as="geometry"/>
                </mxCell>
                <mxCell id="D2VLdZtgTbW5Kp4wzoqd-122" value="0" style="shape=partialRectangle;html=1;whiteSpace=wrap;connectable=0;overflow=hidden;fillColor=none;top=0;left=0;bottom=0;right=0;pointerEvents=1;" vertex="1" parent="D2VLdZtgTbW5Kp4wzoqd-121">
                    <mxGeometry width="60" height="40" as="geometry">
                        <mxRectangle width="60" height="40" as="alternateBounds"/>
                    </mxGeometry>
                </mxCell>
                <mxCell id="D2VLdZtgTbW5Kp4wzoqd-123" value="0" style="shape=partialRectangle;html=1;whiteSpace=wrap;connectable=0;overflow=hidden;fillColor=none;top=0;left=0;bottom=0;right=0;pointerEvents=1;" vertex="1" parent="D2VLdZtgTbW5Kp4wzoqd-121">
                    <mxGeometry x="60" width="60" height="40" as="geometry">
                        <mxRectangle width="60" height="40" as="alternateBounds"/>
                    </mxGeometry>
                </mxCell>
                <mxCell id="D2VLdZtgTbW5Kp4wzoqd-124" value="0" style="shape=partialRectangle;html=1;whiteSpace=wrap;connectable=0;overflow=hidden;fillColor=none;top=0;left=0;bottom=0;right=0;pointerEvents=1;" vertex="1" parent="D2VLdZtgTbW5Kp4wzoqd-121">
                    <mxGeometry x="120" width="60" height="40" as="geometry">
                        <mxRectangle width="60" height="40" as="alternateBounds"/>
                    </mxGeometry>
                </mxCell>
                <mxCell id="D2VLdZtgTbW5Kp4wzoqd-125" value="1" style="shape=partialRectangle;html=1;whiteSpace=wrap;connectable=0;overflow=hidden;fillColor=none;top=0;left=0;bottom=0;right=0;pointerEvents=1;" vertex="1" parent="D2VLdZtgTbW5Kp4wzoqd-121">
                    <mxGeometry x="180" width="60" height="40" as="geometry">
                        <mxRectangle width="60" height="40" as="alternateBounds"/>
                    </mxGeometry>
                </mxCell>
                <mxCell id="D2VLdZtgTbW5Kp4wzoqd-126" value="1" style="shape=partialRectangle;html=1;whiteSpace=wrap;connectable=0;overflow=hidden;fillColor=none;top=0;left=0;bottom=0;right=0;pointerEvents=1;" vertex="1" parent="D2VLdZtgTbW5Kp4wzoqd-121">
                    <mxGeometry x="240" width="60" height="40" as="geometry">
                        <mxRectangle width="60" height="40" as="alternateBounds"/>
                    </mxGeometry>
                </mxCell>
                <mxCell id="D2VLdZtgTbW5Kp4wzoqd-127" value="0" style="shape=partialRectangle;html=1;whiteSpace=wrap;connectable=0;overflow=hidden;fillColor=none;top=0;left=0;bottom=0;right=0;pointerEvents=1;" vertex="1" parent="D2VLdZtgTbW5Kp4wzoqd-121">
                    <mxGeometry x="300" width="60" height="40" as="geometry">
                        <mxRectangle width="60" height="40" as="alternateBounds"/>
                    </mxGeometry>
                </mxCell>
                <mxCell id="D2VLdZtgTbW5Kp4wzoqd-128" value="1" style="shape=partialRectangle;html=1;whiteSpace=wrap;connectable=0;overflow=hidden;fillColor=none;top=0;left=0;bottom=0;right=0;pointerEvents=1;" vertex="1" parent="D2VLdZtgTbW5Kp4wzoqd-121">
                    <mxGeometry x="360" width="60" height="40" as="geometry">
                        <mxRectangle width="60" height="40" as="alternateBounds"/>
                    </mxGeometry>
                </mxCell>
                <mxCell id="D2VLdZtgTbW5Kp4wzoqd-129" value="0" style="shape=partialRectangle;html=1;whiteSpace=wrap;connectable=0;overflow=hidden;fillColor=none;top=0;left=0;bottom=0;right=0;pointerEvents=1;" vertex="1" parent="D2VLdZtgTbW5Kp4wzoqd-121">
                    <mxGeometry x="420" width="60" height="40" as="geometry">
                        <mxRectangle width="60" height="40" as="alternateBounds"/>
                    </mxGeometry>
                </mxCell>
                <mxCell id="D2VLdZtgTbW5Kp4wzoqd-130" value="" style="shape=tableRow;horizontal=0;startSize=0;swimlaneHead=0;swimlaneBody=0;top=0;left=0;bottom=0;right=0;collapsible=0;dropTarget=0;fillColor=none;points=[[0,0.5],[1,0.5]];portConstraint=eastwest;" vertex="1" parent="D2VLdZtgTbW5Kp4wzoqd-75">
                    <mxGeometry y="240" width="480" height="40" as="geometry"/>
                </mxCell>
                <mxCell id="D2VLdZtgTbW5Kp4wzoqd-131" value="0" style="shape=partialRectangle;html=1;whiteSpace=wrap;connectable=0;overflow=hidden;fillColor=none;top=0;left=0;bottom=0;right=0;pointerEvents=1;" vertex="1" parent="D2VLdZtgTbW5Kp4wzoqd-130">
                    <mxGeometry width="60" height="40" as="geometry">
                        <mxRectangle width="60" height="40" as="alternateBounds"/>
                    </mxGeometry>
                </mxCell>
                <mxCell id="D2VLdZtgTbW5Kp4wzoqd-132" value="0" style="shape=partialRectangle;html=1;whiteSpace=wrap;connectable=0;overflow=hidden;fillColor=none;top=0;left=0;bottom=0;right=0;pointerEvents=1;" vertex="1" parent="D2VLdZtgTbW5Kp4wzoqd-130">
                    <mxGeometry x="60" width="60" height="40" as="geometry">
                        <mxRectangle width="60" height="40" as="alternateBounds"/>
                    </mxGeometry>
                </mxCell>
                <mxCell id="D2VLdZtgTbW5Kp4wzoqd-133" value="0" style="shape=partialRectangle;html=1;whiteSpace=wrap;connectable=0;overflow=hidden;fillColor=none;top=0;left=0;bottom=0;right=0;pointerEvents=1;" vertex="1" parent="D2VLdZtgTbW5Kp4wzoqd-130">
                    <mxGeometry x="120" width="60" height="40" as="geometry">
                        <mxRectangle width="60" height="40" as="alternateBounds"/>
                    </mxGeometry>
                </mxCell>
                <mxCell id="D2VLdZtgTbW5Kp4wzoqd-134" value="0" style="shape=partialRectangle;html=1;whiteSpace=wrap;connectable=0;overflow=hidden;fillColor=none;top=0;left=0;bottom=0;right=0;pointerEvents=1;" vertex="1" parent="D2VLdZtgTbW5Kp4wzoqd-130">
                    <mxGeometry x="180" width="60" height="40" as="geometry">
                        <mxRectangle width="60" height="40" as="alternateBounds"/>
                    </mxGeometry>
                </mxCell>
                <mxCell id="D2VLdZtgTbW5Kp4wzoqd-135" value="1" style="shape=partialRectangle;html=1;whiteSpace=wrap;connectable=0;overflow=hidden;fillColor=none;top=0;left=0;bottom=0;right=0;pointerEvents=1;" vertex="1" parent="D2VLdZtgTbW5Kp4wzoqd-130">
                    <mxGeometry x="240" width="60" height="40" as="geometry">
                        <mxRectangle width="60" height="40" as="alternateBounds"/>
                    </mxGeometry>
                </mxCell>
                <mxCell id="D2VLdZtgTbW5Kp4wzoqd-136" value="1" style="shape=partialRectangle;html=1;whiteSpace=wrap;connectable=0;overflow=hidden;fillColor=none;top=0;left=0;bottom=0;right=0;pointerEvents=1;" vertex="1" parent="D2VLdZtgTbW5Kp4wzoqd-130">
                    <mxGeometry x="300" width="60" height="40" as="geometry">
                        <mxRectangle width="60" height="40" as="alternateBounds"/>
                    </mxGeometry>
                </mxCell>
                <mxCell id="D2VLdZtgTbW5Kp4wzoqd-137" value="0" style="shape=partialRectangle;html=1;whiteSpace=wrap;connectable=0;overflow=hidden;fillColor=none;top=0;left=0;bottom=0;right=0;pointerEvents=1;" vertex="1" parent="D2VLdZtgTbW5Kp4wzoqd-130">
                    <mxGeometry x="360" width="60" height="40" as="geometry">
                        <mxRectangle width="60" height="40" as="alternateBounds"/>
                    </mxGeometry>
                </mxCell>
                <mxCell id="D2VLdZtgTbW5Kp4wzoqd-138" value="1" style="shape=partialRectangle;html=1;whiteSpace=wrap;connectable=0;overflow=hidden;fillColor=none;top=0;left=0;bottom=0;right=0;pointerEvents=1;" vertex="1" parent="D2VLdZtgTbW5Kp4wzoqd-130">
                    <mxGeometry x="420" width="60" height="40" as="geometry">
                        <mxRectangle width="60" height="40" as="alternateBounds"/>
                    </mxGeometry>
                </mxCell>
                <mxCell id="D2VLdZtgTbW5Kp4wzoqd-139" value="" style="shape=tableRow;horizontal=0;startSize=0;swimlaneHead=0;swimlaneBody=0;top=0;left=0;bottom=0;right=0;collapsible=0;dropTarget=0;fillColor=none;points=[[0,0.5],[1,0.5]];portConstraint=eastwest;" vertex="1" parent="D2VLdZtgTbW5Kp4wzoqd-75">
                    <mxGeometry y="280" width="480" height="40" as="geometry"/>
                </mxCell>
                <mxCell id="D2VLdZtgTbW5Kp4wzoqd-140" value="0" style="shape=partialRectangle;html=1;whiteSpace=wrap;connectable=0;overflow=hidden;fillColor=none;top=0;left=0;bottom=0;right=0;pointerEvents=1;" vertex="1" parent="D2VLdZtgTbW5Kp4wzoqd-139">
                    <mxGeometry width="60" height="40" as="geometry">
                        <mxRectangle width="60" height="40" as="alternateBounds"/>
                    </mxGeometry>
                </mxCell>
                <mxCell id="D2VLdZtgTbW5Kp4wzoqd-141" value="0" style="shape=partialRectangle;html=1;whiteSpace=wrap;connectable=0;overflow=hidden;fillColor=none;top=0;left=0;bottom=0;right=0;pointerEvents=1;" vertex="1" parent="D2VLdZtgTbW5Kp4wzoqd-139">
                    <mxGeometry x="60" width="60" height="40" as="geometry">
                        <mxRectangle width="60" height="40" as="alternateBounds"/>
                    </mxGeometry>
                </mxCell>
                <mxCell id="D2VLdZtgTbW5Kp4wzoqd-142" value="0" style="shape=partialRectangle;html=1;whiteSpace=wrap;connectable=0;overflow=hidden;fillColor=none;top=0;left=0;bottom=0;right=0;pointerEvents=1;" vertex="1" parent="D2VLdZtgTbW5Kp4wzoqd-139">
                    <mxGeometry x="120" width="60" height="40" as="geometry">
                        <mxRectangle width="60" height="40" as="alternateBounds"/>
                    </mxGeometry>
                </mxCell>
                <mxCell id="D2VLdZtgTbW5Kp4wzoqd-143" value="0" style="shape=partialRectangle;html=1;whiteSpace=wrap;connectable=0;overflow=hidden;fillColor=none;top=0;left=0;bottom=0;right=0;pointerEvents=1;" vertex="1" parent="D2VLdZtgTbW5Kp4wzoqd-139">
                    <mxGeometry x="180" width="60" height="40" as="geometry">
                        <mxRectangle width="60" height="40" as="alternateBounds"/>
                    </mxGeometry>
                </mxCell>
                <mxCell id="D2VLdZtgTbW5Kp4wzoqd-144" value="1" style="shape=partialRectangle;html=1;whiteSpace=wrap;connectable=0;overflow=hidden;fillColor=none;top=0;left=0;bottom=0;right=0;pointerEvents=1;" vertex="1" parent="D2VLdZtgTbW5Kp4wzoqd-139">
                    <mxGeometry x="240" width="60" height="40" as="geometry">
                        <mxRectangle width="60" height="40" as="alternateBounds"/>
                    </mxGeometry>
                </mxCell>
                <mxCell id="D2VLdZtgTbW5Kp4wzoqd-145" value="0" style="shape=partialRectangle;html=1;whiteSpace=wrap;connectable=0;overflow=hidden;fillColor=none;top=0;left=0;bottom=0;right=0;pointerEvents=1;" vertex="1" parent="D2VLdZtgTbW5Kp4wzoqd-139">
                    <mxGeometry x="300" width="60" height="40" as="geometry">
                        <mxRectangle width="60" height="40" as="alternateBounds"/>
                    </mxGeometry>
                </mxCell>
                <mxCell id="D2VLdZtgTbW5Kp4wzoqd-146" value="1" style="shape=partialRectangle;html=1;whiteSpace=wrap;connectable=0;overflow=hidden;fillColor=none;top=0;left=0;bottom=0;right=0;pointerEvents=1;" vertex="1" parent="D2VLdZtgTbW5Kp4wzoqd-139">
                    <mxGeometry x="360" width="60" height="40" as="geometry">
                        <mxRectangle width="60" height="40" as="alternateBounds"/>
                    </mxGeometry>
                </mxCell>
                <mxCell id="D2VLdZtgTbW5Kp4wzoqd-147" value="0" style="shape=partialRectangle;html=1;whiteSpace=wrap;connectable=0;overflow=hidden;fillColor=none;top=0;left=0;bottom=0;right=0;pointerEvents=1;" vertex="1" parent="D2VLdZtgTbW5Kp4wzoqd-139">
                    <mxGeometry x="420" width="60" height="40" as="geometry">
                        <mxRectangle width="60" height="40" as="alternateBounds"/>
                    </mxGeometry>
                </mxCell>
                <mxCell id="D2VLdZtgTbW5Kp4wzoqd-149" value="&lt;font style=&quot;font-size: 16px;&quot;&gt;&lt;b&gt;1&lt;/b&gt;&lt;/font&gt;" style="text;html=1;strokeColor=none;fillColor=none;align=center;verticalAlign=middle;whiteSpace=wrap;rounded=0;strokeWidth=3;" vertex="1" parent="1">
                    <mxGeometry x="30" y="400" width="60" height="30" as="geometry"/>
                </mxCell>
                <mxCell id="D2VLdZtgTbW5Kp4wzoqd-150" value="&lt;font style=&quot;font-size: 16px;&quot;&gt;&lt;b&gt;2&lt;/b&gt;&lt;/font&gt;" style="text;html=1;strokeColor=none;fillColor=none;align=center;verticalAlign=middle;whiteSpace=wrap;rounded=0;strokeWidth=3;" vertex="1" parent="1">
                    <mxGeometry x="30" y="440" width="60" height="30" as="geometry"/>
                </mxCell>
                <mxCell id="D2VLdZtgTbW5Kp4wzoqd-151" value="&lt;font style=&quot;font-size: 16px;&quot;&gt;&lt;b&gt;3&lt;/b&gt;&lt;/font&gt;" style="text;html=1;strokeColor=none;fillColor=none;align=center;verticalAlign=middle;whiteSpace=wrap;rounded=0;strokeWidth=3;" vertex="1" parent="1">
                    <mxGeometry x="30" y="480" width="60" height="30" as="geometry"/>
                </mxCell>
                <mxCell id="D2VLdZtgTbW5Kp4wzoqd-152" value="&lt;font style=&quot;font-size: 16px;&quot;&gt;&lt;b&gt;4&lt;/b&gt;&lt;/font&gt;" style="text;html=1;strokeColor=none;fillColor=none;align=center;verticalAlign=middle;whiteSpace=wrap;rounded=0;strokeWidth=3;" vertex="1" parent="1">
                    <mxGeometry x="30" y="520" width="60" height="30" as="geometry"/>
                </mxCell>
                <mxCell id="D2VLdZtgTbW5Kp4wzoqd-153" value="&lt;font style=&quot;font-size: 16px;&quot;&gt;&lt;b&gt;5&lt;/b&gt;&lt;/font&gt;" style="text;html=1;strokeColor=none;fillColor=none;align=center;verticalAlign=middle;whiteSpace=wrap;rounded=0;strokeWidth=3;" vertex="1" parent="1">
                    <mxGeometry x="30" y="560" width="60" height="30" as="geometry"/>
                </mxCell>
                <mxCell id="D2VLdZtgTbW5Kp4wzoqd-154" value="&lt;font style=&quot;font-size: 16px;&quot;&gt;&lt;b&gt;6&lt;/b&gt;&lt;/font&gt;" style="text;html=1;strokeColor=none;fillColor=none;align=center;verticalAlign=middle;whiteSpace=wrap;rounded=0;strokeWidth=3;" vertex="1" parent="1">
                    <mxGeometry x="30" y="600" width="60" height="30" as="geometry"/>
                </mxCell>
                <mxCell id="D2VLdZtgTbW5Kp4wzoqd-155" value="&lt;font style=&quot;font-size: 16px;&quot;&gt;&lt;b&gt;7&lt;/b&gt;&lt;/font&gt;" style="text;html=1;strokeColor=none;fillColor=none;align=center;verticalAlign=middle;whiteSpace=wrap;rounded=0;strokeWidth=3;" vertex="1" parent="1">
                    <mxGeometry x="30" y="640" width="60" height="30" as="geometry"/>
                </mxCell>
                <mxCell id="D2VLdZtgTbW5Kp4wzoqd-156" value="&lt;font style=&quot;font-size: 16px;&quot;&gt;&lt;b&gt;8&lt;/b&gt;&lt;/font&gt;" style="text;html=1;strokeColor=none;fillColor=none;align=center;verticalAlign=middle;whiteSpace=wrap;rounded=0;strokeWidth=3;" vertex="1" parent="1">
                    <mxGeometry x="30" y="680" width="60" height="30" as="geometry"/>
                </mxCell>
                <mxCell id="D2VLdZtgTbW5Kp4wzoqd-215" style="edgeStyle=none;rounded=0;orthogonalLoop=1;jettySize=auto;html=1;exitX=1;exitY=0.5;exitDx=0;exitDy=0;entryX=0;entryY=0.5;entryDx=0;entryDy=0;fontSize=13;endArrow=classic;endFill=1;" edge="1" parent="1" source="D2VLdZtgTbW5Kp4wzoqd-157" target="D2VLdZtgTbW5Kp4wzoqd-161">
                    <mxGeometry relative="1" as="geometry"/>
                </mxCell>
                <mxCell id="D2VLdZtgTbW5Kp4wzoqd-157" value="" style="shape=table;startSize=0;container=1;collapsible=0;childLayout=tableLayout;" vertex="1" parent="1">
                    <mxGeometry x="80" y="820" width="60" height="40" as="geometry"/>
                </mxCell>
                <mxCell id="D2VLdZtgTbW5Kp4wzoqd-158" value="" style="shape=tableRow;horizontal=0;startSize=0;swimlaneHead=0;swimlaneBody=0;top=0;left=0;bottom=0;right=0;collapsible=0;dropTarget=0;fillColor=none;points=[[0,0.5],[1,0.5]];portConstraint=eastwest;" vertex="1" parent="D2VLdZtgTbW5Kp4wzoqd-157">
                    <mxGeometry width="60" height="40" as="geometry"/>
                </mxCell>
                <mxCell id="D2VLdZtgTbW5Kp4wzoqd-159" value="&lt;b&gt;&lt;font style=&quot;font-size: 14px;&quot;&gt;1&lt;/font&gt;&lt;/b&gt;" style="shape=partialRectangle;html=1;whiteSpace=wrap;connectable=0;overflow=hidden;fillColor=none;top=0;left=0;bottom=0;right=0;pointerEvents=1;" vertex="1" parent="D2VLdZtgTbW5Kp4wzoqd-158">
                    <mxGeometry width="60" height="40" as="geometry">
                        <mxRectangle width="60" height="40" as="alternateBounds"/>
                    </mxGeometry>
                </mxCell>
                <mxCell id="D2VLdZtgTbW5Kp4wzoqd-216" style="edgeStyle=none;rounded=0;orthogonalLoop=1;jettySize=auto;html=1;entryX=0;entryY=0.5;entryDx=0;entryDy=0;fontSize=13;endArrow=classic;endFill=1;" edge="1" parent="1" source="D2VLdZtgTbW5Kp4wzoqd-161" target="D2VLdZtgTbW5Kp4wzoqd-208">
                    <mxGeometry relative="1" as="geometry"/>
                </mxCell>
                <mxCell id="D2VLdZtgTbW5Kp4wzoqd-160" value="" style="shape=table;startSize=0;container=1;collapsible=0;childLayout=tableLayout;" vertex="1" parent="1">
                    <mxGeometry x="165" y="820" width="80" height="40" as="geometry"/>
                </mxCell>
                <mxCell id="D2VLdZtgTbW5Kp4wzoqd-161" value="" style="shape=tableRow;horizontal=0;startSize=0;swimlaneHead=0;swimlaneBody=0;top=0;left=0;bottom=0;right=0;collapsible=0;dropTarget=0;fillColor=none;points=[[0,0.5],[1,0.5]];portConstraint=eastwest;" vertex="1" parent="D2VLdZtgTbW5Kp4wzoqd-160">
                    <mxGeometry width="80" height="40" as="geometry"/>
                </mxCell>
                <mxCell id="D2VLdZtgTbW5Kp4wzoqd-162" value="&lt;font size=&quot;1&quot;&gt;&lt;b style=&quot;font-size: 13px;&quot;&gt;2&lt;/b&gt;&lt;/font&gt;" style="shape=partialRectangle;html=1;whiteSpace=wrap;connectable=0;overflow=hidden;fillColor=none;top=0;left=0;bottom=0;right=0;pointerEvents=1;" vertex="1" parent="D2VLdZtgTbW5Kp4wzoqd-161">
                    <mxGeometry width="60" height="40" as="geometry">
                        <mxRectangle width="60" height="40" as="alternateBounds"/>
                    </mxGeometry>
                </mxCell>
                <mxCell id="D2VLdZtgTbW5Kp4wzoqd-163" value="" style="shape=partialRectangle;html=1;whiteSpace=wrap;connectable=0;overflow=hidden;fillColor=none;top=0;left=0;bottom=0;right=0;pointerEvents=1;" vertex="1" parent="D2VLdZtgTbW5Kp4wzoqd-161">
                    <mxGeometry x="60" width="20" height="40" as="geometry">
                        <mxRectangle width="20" height="40" as="alternateBounds"/>
                    </mxGeometry>
                </mxCell>
                <mxCell id="D2VLdZtgTbW5Kp4wzoqd-164" value="" style="shape=partialRectangle;html=1;whiteSpace=wrap;connectable=0;overflow=hidden;fillColor=none;top=0;left=0;bottom=0;right=0;pointerEvents=1;" vertex="1" parent="1">
                    <mxGeometry x="80" y="870" width="60" height="40" as="geometry">
                        <mxRectangle width="60" height="40" as="alternateBounds"/>
                    </mxGeometry>
                </mxCell>
                <mxCell id="D2VLdZtgTbW5Kp4wzoqd-186" value="" style="shape=table;startSize=0;container=1;collapsible=0;childLayout=tableLayout;" vertex="1" parent="1">
                    <mxGeometry x="80" y="870" width="60" height="40" as="geometry"/>
                </mxCell>
                <mxCell id="D2VLdZtgTbW5Kp4wzoqd-187" value="" style="shape=tableRow;horizontal=0;startSize=0;swimlaneHead=0;swimlaneBody=0;top=0;left=0;bottom=0;right=0;collapsible=0;dropTarget=0;fillColor=none;points=[[0,0.5],[1,0.5]];portConstraint=eastwest;" vertex="1" parent="D2VLdZtgTbW5Kp4wzoqd-186">
                    <mxGeometry width="60" height="40" as="geometry"/>
                </mxCell>
                <mxCell id="D2VLdZtgTbW5Kp4wzoqd-188" value="&lt;b&gt;&lt;font style=&quot;font-size: 14px;&quot;&gt;2&lt;/font&gt;&lt;/b&gt;" style="shape=partialRectangle;html=1;whiteSpace=wrap;connectable=0;overflow=hidden;fillColor=none;top=0;left=0;bottom=0;right=0;pointerEvents=1;" vertex="1" parent="D2VLdZtgTbW5Kp4wzoqd-187">
                    <mxGeometry width="60" height="40" as="geometry">
                        <mxRectangle width="60" height="40" as="alternateBounds"/>
                    </mxGeometry>
                </mxCell>
                <mxCell id="D2VLdZtgTbW5Kp4wzoqd-189" value="" style="shape=table;startSize=0;container=1;collapsible=0;childLayout=tableLayout;" vertex="1" parent="1">
                    <mxGeometry x="80" y="1169" width="60" height="40" as="geometry"/>
                </mxCell>
                <mxCell id="D2VLdZtgTbW5Kp4wzoqd-190" value="" style="shape=tableRow;horizontal=0;startSize=0;swimlaneHead=0;swimlaneBody=0;top=0;left=0;bottom=0;right=0;collapsible=0;dropTarget=0;fillColor=none;points=[[0,0.5],[1,0.5]];portConstraint=eastwest;" vertex="1" parent="D2VLdZtgTbW5Kp4wzoqd-189">
                    <mxGeometry width="60" height="40" as="geometry"/>
                </mxCell>
                <mxCell id="D2VLdZtgTbW5Kp4wzoqd-191" value="&lt;b&gt;&lt;font style=&quot;font-size: 14px;&quot;&gt;8&lt;/font&gt;&lt;/b&gt;" style="shape=partialRectangle;html=1;whiteSpace=wrap;connectable=0;overflow=hidden;fillColor=none;top=0;left=0;bottom=0;right=0;pointerEvents=1;" vertex="1" parent="D2VLdZtgTbW5Kp4wzoqd-190">
                    <mxGeometry width="60" height="40" as="geometry">
                        <mxRectangle width="60" height="40" as="alternateBounds"/>
                    </mxGeometry>
                </mxCell>
                <mxCell id="D2VLdZtgTbW5Kp4wzoqd-192" value="" style="shape=table;startSize=0;container=1;collapsible=0;childLayout=tableLayout;" vertex="1" parent="1">
                    <mxGeometry x="80" y="1120" width="60" height="40" as="geometry"/>
                </mxCell>
                <mxCell id="D2VLdZtgTbW5Kp4wzoqd-193" value="" style="shape=tableRow;horizontal=0;startSize=0;swimlaneHead=0;swimlaneBody=0;top=0;left=0;bottom=0;right=0;collapsible=0;dropTarget=0;fillColor=none;points=[[0,0.5],[1,0.5]];portConstraint=eastwest;" vertex="1" parent="D2VLdZtgTbW5Kp4wzoqd-192">
                    <mxGeometry width="60" height="40" as="geometry"/>
                </mxCell>
                <mxCell id="D2VLdZtgTbW5Kp4wzoqd-194" value="&lt;b&gt;&lt;font style=&quot;font-size: 14px;&quot;&gt;7&lt;/font&gt;&lt;/b&gt;" style="shape=partialRectangle;html=1;whiteSpace=wrap;connectable=0;overflow=hidden;fillColor=none;top=0;left=0;bottom=0;right=0;pointerEvents=1;" vertex="1" parent="D2VLdZtgTbW5Kp4wzoqd-193">
                    <mxGeometry width="60" height="40" as="geometry">
                        <mxRectangle width="60" height="40" as="alternateBounds"/>
                    </mxGeometry>
                </mxCell>
                <mxCell id="D2VLdZtgTbW5Kp4wzoqd-295" style="edgeStyle=none;rounded=0;orthogonalLoop=1;jettySize=auto;html=1;exitX=1;exitY=0.5;exitDx=0;exitDy=0;entryX=0;entryY=0.5;entryDx=0;entryDy=0;fontSize=13;endArrow=classic;endFill=1;" edge="1" parent="1" source="D2VLdZtgTbW5Kp4wzoqd-195" target="D2VLdZtgTbW5Kp4wzoqd-284">
                    <mxGeometry relative="1" as="geometry"/>
                </mxCell>
                <mxCell id="D2VLdZtgTbW5Kp4wzoqd-195" value="" style="shape=table;startSize=0;container=1;collapsible=0;childLayout=tableLayout;" vertex="1" parent="1">
                    <mxGeometry x="80" y="1070" width="60" height="40" as="geometry"/>
                </mxCell>
                <mxCell id="D2VLdZtgTbW5Kp4wzoqd-196" value="" style="shape=tableRow;horizontal=0;startSize=0;swimlaneHead=0;swimlaneBody=0;top=0;left=0;bottom=0;right=0;collapsible=0;dropTarget=0;fillColor=none;points=[[0,0.5],[1,0.5]];portConstraint=eastwest;" vertex="1" parent="D2VLdZtgTbW5Kp4wzoqd-195">
                    <mxGeometry width="60" height="40" as="geometry"/>
                </mxCell>
                <mxCell id="D2VLdZtgTbW5Kp4wzoqd-197" value="&lt;b&gt;&lt;font style=&quot;font-size: 14px;&quot;&gt;6&lt;/font&gt;&lt;/b&gt;" style="shape=partialRectangle;html=1;whiteSpace=wrap;connectable=0;overflow=hidden;fillColor=none;top=0;left=0;bottom=0;right=0;pointerEvents=1;" vertex="1" parent="D2VLdZtgTbW5Kp4wzoqd-196">
                    <mxGeometry width="60" height="40" as="geometry">
                        <mxRectangle width="60" height="40" as="alternateBounds"/>
                    </mxGeometry>
                </mxCell>
                <mxCell id="D2VLdZtgTbW5Kp4wzoqd-198" value="" style="shape=table;startSize=0;container=1;collapsible=0;childLayout=tableLayout;" vertex="1" parent="1">
                    <mxGeometry x="80" y="920" width="60" height="40" as="geometry"/>
                </mxCell>
                <mxCell id="D2VLdZtgTbW5Kp4wzoqd-199" value="" style="shape=tableRow;horizontal=0;startSize=0;swimlaneHead=0;swimlaneBody=0;top=0;left=0;bottom=0;right=0;collapsible=0;dropTarget=0;fillColor=none;points=[[0,0.5],[1,0.5]];portConstraint=eastwest;" vertex="1" parent="D2VLdZtgTbW5Kp4wzoqd-198">
                    <mxGeometry width="60" height="40" as="geometry"/>
                </mxCell>
                <mxCell id="D2VLdZtgTbW5Kp4wzoqd-200" value="&lt;b&gt;&lt;font style=&quot;font-size: 14px;&quot;&gt;3&lt;/font&gt;&lt;/b&gt;" style="shape=partialRectangle;html=1;whiteSpace=wrap;connectable=0;overflow=hidden;fillColor=none;top=0;left=0;bottom=0;right=0;pointerEvents=1;" vertex="1" parent="D2VLdZtgTbW5Kp4wzoqd-199">
                    <mxGeometry width="60" height="40" as="geometry">
                        <mxRectangle width="60" height="40" as="alternateBounds"/>
                    </mxGeometry>
                </mxCell>
                <mxCell id="D2VLdZtgTbW5Kp4wzoqd-201" value="" style="shape=table;startSize=0;container=1;collapsible=0;childLayout=tableLayout;" vertex="1" parent="1">
                    <mxGeometry x="80" y="1020" width="60" height="40" as="geometry"/>
                </mxCell>
                <mxCell id="D2VLdZtgTbW5Kp4wzoqd-202" value="" style="shape=tableRow;horizontal=0;startSize=0;swimlaneHead=0;swimlaneBody=0;top=0;left=0;bottom=0;right=0;collapsible=0;dropTarget=0;fillColor=none;points=[[0,0.5],[1,0.5]];portConstraint=eastwest;" vertex="1" parent="D2VLdZtgTbW5Kp4wzoqd-201">
                    <mxGeometry width="60" height="40" as="geometry"/>
                </mxCell>
                <mxCell id="D2VLdZtgTbW5Kp4wzoqd-203" value="&lt;b&gt;&lt;font style=&quot;font-size: 14px;&quot;&gt;5&lt;/font&gt;&lt;/b&gt;" style="shape=partialRectangle;html=1;whiteSpace=wrap;connectable=0;overflow=hidden;fillColor=none;top=0;left=0;bottom=0;right=0;pointerEvents=1;" vertex="1" parent="D2VLdZtgTbW5Kp4wzoqd-202">
                    <mxGeometry width="60" height="40" as="geometry">
                        <mxRectangle width="60" height="40" as="alternateBounds"/>
                    </mxGeometry>
                </mxCell>
                <mxCell id="D2VLdZtgTbW5Kp4wzoqd-204" value="" style="shape=table;startSize=0;container=1;collapsible=0;childLayout=tableLayout;" vertex="1" parent="1">
                    <mxGeometry x="80" y="970" width="60" height="40" as="geometry"/>
                </mxCell>
                <mxCell id="D2VLdZtgTbW5Kp4wzoqd-205" value="" style="shape=tableRow;horizontal=0;startSize=0;swimlaneHead=0;swimlaneBody=0;top=0;left=0;bottom=0;right=0;collapsible=0;dropTarget=0;fillColor=none;points=[[0,0.5],[1,0.5]];portConstraint=eastwest;" vertex="1" parent="D2VLdZtgTbW5Kp4wzoqd-204">
                    <mxGeometry width="60" height="40" as="geometry"/>
                </mxCell>
                <mxCell id="D2VLdZtgTbW5Kp4wzoqd-206" value="&lt;b&gt;&lt;font style=&quot;font-size: 14px;&quot;&gt;4&lt;/font&gt;&lt;/b&gt;" style="shape=partialRectangle;html=1;whiteSpace=wrap;connectable=0;overflow=hidden;fillColor=none;top=0;left=0;bottom=0;right=0;pointerEvents=1;" vertex="1" parent="D2VLdZtgTbW5Kp4wzoqd-205">
                    <mxGeometry width="60" height="40" as="geometry">
                        <mxRectangle width="60" height="40" as="alternateBounds"/>
                    </mxGeometry>
                </mxCell>
                <mxCell id="D2VLdZtgTbW5Kp4wzoqd-217" style="edgeStyle=none;rounded=0;orthogonalLoop=1;jettySize=auto;html=1;exitX=1;exitY=0.5;exitDx=0;exitDy=0;fontSize=13;endArrow=classic;endFill=1;" edge="1" parent="1" source="D2VLdZtgTbW5Kp4wzoqd-207" target="D2VLdZtgTbW5Kp4wzoqd-212">
                    <mxGeometry relative="1" as="geometry"/>
                </mxCell>
                <mxCell id="D2VLdZtgTbW5Kp4wzoqd-207" value="" style="shape=table;startSize=0;container=1;collapsible=0;childLayout=tableLayout;" vertex="1" parent="1">
                    <mxGeometry x="270" y="820" width="80" height="40" as="geometry"/>
                </mxCell>
                <mxCell id="D2VLdZtgTbW5Kp4wzoqd-208" value="" style="shape=tableRow;horizontal=0;startSize=0;swimlaneHead=0;swimlaneBody=0;top=0;left=0;bottom=0;right=0;collapsible=0;dropTarget=0;fillColor=none;points=[[0,0.5],[1,0.5]];portConstraint=eastwest;" vertex="1" parent="D2VLdZtgTbW5Kp4wzoqd-207">
                    <mxGeometry width="80" height="40" as="geometry"/>
                </mxCell>
                <mxCell id="D2VLdZtgTbW5Kp4wzoqd-209" value="&lt;font size=&quot;1&quot;&gt;&lt;b style=&quot;font-size: 13px;&quot;&gt;3&lt;/b&gt;&lt;/font&gt;" style="shape=partialRectangle;html=1;whiteSpace=wrap;connectable=0;overflow=hidden;fillColor=none;top=0;left=0;bottom=0;right=0;pointerEvents=1;" vertex="1" parent="D2VLdZtgTbW5Kp4wzoqd-208">
                    <mxGeometry width="60" height="40" as="geometry">
                        <mxRectangle width="60" height="40" as="alternateBounds"/>
                    </mxGeometry>
                </mxCell>
                <mxCell id="D2VLdZtgTbW5Kp4wzoqd-210" value="" style="shape=partialRectangle;html=1;whiteSpace=wrap;connectable=0;overflow=hidden;fillColor=none;top=0;left=0;bottom=0;right=0;pointerEvents=1;" vertex="1" parent="D2VLdZtgTbW5Kp4wzoqd-208">
                    <mxGeometry x="60" width="20" height="40" as="geometry">
                        <mxRectangle width="20" height="40" as="alternateBounds"/>
                    </mxGeometry>
                </mxCell>
                <mxCell id="D2VLdZtgTbW5Kp4wzoqd-211" value="" style="shape=table;startSize=0;container=1;collapsible=0;childLayout=tableLayout;" vertex="1" parent="1">
                    <mxGeometry x="374" y="820" width="80" height="40" as="geometry"/>
                </mxCell>
                <mxCell id="D2VLdZtgTbW5Kp4wzoqd-212" value="" style="shape=tableRow;horizontal=0;startSize=0;swimlaneHead=0;swimlaneBody=0;top=0;left=0;bottom=0;right=0;collapsible=0;dropTarget=0;fillColor=none;points=[[0,0.5],[1,0.5]];portConstraint=eastwest;" vertex="1" parent="D2VLdZtgTbW5Kp4wzoqd-211">
                    <mxGeometry width="80" height="40" as="geometry"/>
                </mxCell>
                <mxCell id="D2VLdZtgTbW5Kp4wzoqd-213" value="&lt;font size=&quot;1&quot;&gt;&lt;b style=&quot;font-size: 13px;&quot;&gt;4&lt;/b&gt;&lt;/font&gt;" style="shape=partialRectangle;html=1;whiteSpace=wrap;connectable=0;overflow=hidden;fillColor=none;top=0;left=0;bottom=0;right=0;pointerEvents=1;" vertex="1" parent="D2VLdZtgTbW5Kp4wzoqd-212">
                    <mxGeometry width="60" height="40" as="geometry">
                        <mxRectangle width="60" height="40" as="alternateBounds"/>
                    </mxGeometry>
                </mxCell>
                <mxCell id="D2VLdZtgTbW5Kp4wzoqd-214" value="" style="shape=partialRectangle;html=1;whiteSpace=wrap;connectable=0;overflow=hidden;fillColor=none;top=0;left=0;bottom=0;right=0;pointerEvents=1;" vertex="1" parent="D2VLdZtgTbW5Kp4wzoqd-212">
                    <mxGeometry x="60" width="20" height="40" as="geometry">
                        <mxRectangle width="20" height="40" as="alternateBounds"/>
                    </mxGeometry>
                </mxCell>
                <mxCell id="D2VLdZtgTbW5Kp4wzoqd-218" value="" style="shape=table;startSize=0;container=1;collapsible=0;childLayout=tableLayout;" vertex="1" parent="1">
                    <mxGeometry x="165" y="870" width="80" height="40" as="geometry"/>
                </mxCell>
                <mxCell id="D2VLdZtgTbW5Kp4wzoqd-219" value="" style="shape=tableRow;horizontal=0;startSize=0;swimlaneHead=0;swimlaneBody=0;top=0;left=0;bottom=0;right=0;collapsible=0;dropTarget=0;fillColor=none;points=[[0,0.5],[1,0.5]];portConstraint=eastwest;" vertex="1" parent="D2VLdZtgTbW5Kp4wzoqd-218">
                    <mxGeometry width="80" height="40" as="geometry"/>
                </mxCell>
                <mxCell id="D2VLdZtgTbW5Kp4wzoqd-220" value="&lt;font size=&quot;1&quot;&gt;&lt;b style=&quot;font-size: 13px;&quot;&gt;1&lt;/b&gt;&lt;/font&gt;" style="shape=partialRectangle;html=1;whiteSpace=wrap;connectable=0;overflow=hidden;fillColor=none;top=0;left=0;bottom=0;right=0;pointerEvents=1;" vertex="1" parent="D2VLdZtgTbW5Kp4wzoqd-219">
                    <mxGeometry width="60" height="40" as="geometry">
                        <mxRectangle width="60" height="40" as="alternateBounds"/>
                    </mxGeometry>
                </mxCell>
                <mxCell id="D2VLdZtgTbW5Kp4wzoqd-221" value="" style="shape=partialRectangle;html=1;whiteSpace=wrap;connectable=0;overflow=hidden;fillColor=none;top=0;left=0;bottom=0;right=0;pointerEvents=1;" vertex="1" parent="D2VLdZtgTbW5Kp4wzoqd-219">
                    <mxGeometry x="60" width="20" height="40" as="geometry">
                        <mxRectangle width="20" height="40" as="alternateBounds"/>
                    </mxGeometry>
                </mxCell>
                <mxCell id="D2VLdZtgTbW5Kp4wzoqd-222" value="" style="shape=table;startSize=0;container=1;collapsible=0;childLayout=tableLayout;" vertex="1" parent="1">
                    <mxGeometry x="270" y="870" width="80" height="40" as="geometry"/>
                </mxCell>
                <mxCell id="D2VLdZtgTbW5Kp4wzoqd-223" value="" style="shape=tableRow;horizontal=0;startSize=0;swimlaneHead=0;swimlaneBody=0;top=0;left=0;bottom=0;right=0;collapsible=0;dropTarget=0;fillColor=none;points=[[0,0.5],[1,0.5]];portConstraint=eastwest;" vertex="1" parent="D2VLdZtgTbW5Kp4wzoqd-222">
                    <mxGeometry width="80" height="40" as="geometry"/>
                </mxCell>
                <mxCell id="D2VLdZtgTbW5Kp4wzoqd-224" value="&lt;font size=&quot;1&quot;&gt;&lt;b style=&quot;font-size: 13px;&quot;&gt;3&lt;/b&gt;&lt;/font&gt;" style="shape=partialRectangle;html=1;whiteSpace=wrap;connectable=0;overflow=hidden;fillColor=none;top=0;left=0;bottom=0;right=0;pointerEvents=1;" vertex="1" parent="D2VLdZtgTbW5Kp4wzoqd-223">
                    <mxGeometry width="60" height="40" as="geometry">
                        <mxRectangle width="60" height="40" as="alternateBounds"/>
                    </mxGeometry>
                </mxCell>
                <mxCell id="D2VLdZtgTbW5Kp4wzoqd-225" value="" style="shape=partialRectangle;html=1;whiteSpace=wrap;connectable=0;overflow=hidden;fillColor=none;top=0;left=0;bottom=0;right=0;pointerEvents=1;" vertex="1" parent="D2VLdZtgTbW5Kp4wzoqd-223">
                    <mxGeometry x="60" width="20" height="40" as="geometry">
                        <mxRectangle width="20" height="40" as="alternateBounds"/>
                    </mxGeometry>
                </mxCell>
                <mxCell id="D2VLdZtgTbW5Kp4wzoqd-226" value="" style="shape=table;startSize=0;container=1;collapsible=0;childLayout=tableLayout;" vertex="1" parent="1">
                    <mxGeometry x="374" y="870" width="80" height="40" as="geometry"/>
                </mxCell>
                <mxCell id="D2VLdZtgTbW5Kp4wzoqd-227" value="" style="shape=tableRow;horizontal=0;startSize=0;swimlaneHead=0;swimlaneBody=0;top=0;left=0;bottom=0;right=0;collapsible=0;dropTarget=0;fillColor=none;points=[[0,0.5],[1,0.5]];portConstraint=eastwest;" vertex="1" parent="D2VLdZtgTbW5Kp4wzoqd-226">
                    <mxGeometry width="80" height="40" as="geometry"/>
                </mxCell>
                <mxCell id="D2VLdZtgTbW5Kp4wzoqd-228" value="&lt;font size=&quot;1&quot;&gt;&lt;b style=&quot;font-size: 13px;&quot;&gt;4&lt;/b&gt;&lt;/font&gt;" style="shape=partialRectangle;html=1;whiteSpace=wrap;connectable=0;overflow=hidden;fillColor=none;top=0;left=0;bottom=0;right=0;pointerEvents=1;" vertex="1" parent="D2VLdZtgTbW5Kp4wzoqd-227">
                    <mxGeometry width="60" height="40" as="geometry">
                        <mxRectangle width="60" height="40" as="alternateBounds"/>
                    </mxGeometry>
                </mxCell>
                <mxCell id="D2VLdZtgTbW5Kp4wzoqd-229" value="" style="shape=partialRectangle;html=1;whiteSpace=wrap;connectable=0;overflow=hidden;fillColor=none;top=0;left=0;bottom=0;right=0;pointerEvents=1;" vertex="1" parent="D2VLdZtgTbW5Kp4wzoqd-227">
                    <mxGeometry x="60" width="20" height="40" as="geometry">
                        <mxRectangle width="20" height="40" as="alternateBounds"/>
                    </mxGeometry>
                </mxCell>
                <mxCell id="D2VLdZtgTbW5Kp4wzoqd-230" style="edgeStyle=none;rounded=0;orthogonalLoop=1;jettySize=auto;html=1;entryX=0;entryY=0.5;entryDx=0;entryDy=0;fontSize=13;endArrow=classic;endFill=1;" edge="1" parent="1" source="D2VLdZtgTbW5Kp4wzoqd-187" target="D2VLdZtgTbW5Kp4wzoqd-218">
                    <mxGeometry relative="1" as="geometry"/>
                </mxCell>
                <mxCell id="D2VLdZtgTbW5Kp4wzoqd-231" style="edgeStyle=none;rounded=0;orthogonalLoop=1;jettySize=auto;html=1;exitX=1;exitY=0.5;exitDx=0;exitDy=0;entryX=0;entryY=0.5;entryDx=0;entryDy=0;fontSize=13;endArrow=classic;endFill=1;" edge="1" parent="1" source="D2VLdZtgTbW5Kp4wzoqd-219" target="D2VLdZtgTbW5Kp4wzoqd-223">
                    <mxGeometry relative="1" as="geometry"/>
                </mxCell>
                <mxCell id="D2VLdZtgTbW5Kp4wzoqd-232" style="edgeStyle=none;rounded=0;orthogonalLoop=1;jettySize=auto;html=1;exitX=1;exitY=0.5;exitDx=0;exitDy=0;entryX=0;entryY=0.5;entryDx=0;entryDy=0;fontSize=13;endArrow=classic;endFill=1;" edge="1" parent="1" source="D2VLdZtgTbW5Kp4wzoqd-223" target="D2VLdZtgTbW5Kp4wzoqd-227">
                    <mxGeometry relative="1" as="geometry"/>
                </mxCell>
                <mxCell id="D2VLdZtgTbW5Kp4wzoqd-246" style="edgeStyle=none;rounded=0;orthogonalLoop=1;jettySize=auto;html=1;entryX=0;entryY=0.5;entryDx=0;entryDy=0;fontSize=13;endArrow=classic;endFill=1;" edge="1" parent="1" source="D2VLdZtgTbW5Kp4wzoqd-233" target="D2VLdZtgTbW5Kp4wzoqd-238">
                    <mxGeometry relative="1" as="geometry"/>
                </mxCell>
                <mxCell id="D2VLdZtgTbW5Kp4wzoqd-233" value="" style="shape=table;startSize=0;container=1;collapsible=0;childLayout=tableLayout;" vertex="1" parent="1">
                    <mxGeometry x="165" y="920" width="80" height="40" as="geometry"/>
                </mxCell>
                <mxCell id="D2VLdZtgTbW5Kp4wzoqd-234" value="" style="shape=tableRow;horizontal=0;startSize=0;swimlaneHead=0;swimlaneBody=0;top=0;left=0;bottom=0;right=0;collapsible=0;dropTarget=0;fillColor=none;points=[[0,0.5],[1,0.5]];portConstraint=eastwest;" vertex="1" parent="D2VLdZtgTbW5Kp4wzoqd-233">
                    <mxGeometry width="80" height="40" as="geometry"/>
                </mxCell>
                <mxCell id="D2VLdZtgTbW5Kp4wzoqd-235" value="&lt;font size=&quot;1&quot;&gt;&lt;b style=&quot;font-size: 13px;&quot;&gt;1&lt;/b&gt;&lt;/font&gt;" style="shape=partialRectangle;html=1;whiteSpace=wrap;connectable=0;overflow=hidden;fillColor=none;top=0;left=0;bottom=0;right=0;pointerEvents=1;" vertex="1" parent="D2VLdZtgTbW5Kp4wzoqd-234">
                    <mxGeometry width="60" height="40" as="geometry">
                        <mxRectangle width="60" height="40" as="alternateBounds"/>
                    </mxGeometry>
                </mxCell>
                <mxCell id="D2VLdZtgTbW5Kp4wzoqd-236" value="" style="shape=partialRectangle;html=1;whiteSpace=wrap;connectable=0;overflow=hidden;fillColor=none;top=0;left=0;bottom=0;right=0;pointerEvents=1;" vertex="1" parent="D2VLdZtgTbW5Kp4wzoqd-234">
                    <mxGeometry x="60" width="20" height="40" as="geometry">
                        <mxRectangle width="20" height="40" as="alternateBounds"/>
                    </mxGeometry>
                </mxCell>
                <mxCell id="D2VLdZtgTbW5Kp4wzoqd-237" value="" style="shape=table;startSize=0;container=1;collapsible=0;childLayout=tableLayout;" vertex="1" parent="1">
                    <mxGeometry x="270" y="920" width="80" height="40" as="geometry"/>
                </mxCell>
                <mxCell id="D2VLdZtgTbW5Kp4wzoqd-238" value="" style="shape=tableRow;horizontal=0;startSize=0;swimlaneHead=0;swimlaneBody=0;top=0;left=0;bottom=0;right=0;collapsible=0;dropTarget=0;fillColor=none;points=[[0,0.5],[1,0.5]];portConstraint=eastwest;" vertex="1" parent="D2VLdZtgTbW5Kp4wzoqd-237">
                    <mxGeometry width="80" height="40" as="geometry"/>
                </mxCell>
                <mxCell id="D2VLdZtgTbW5Kp4wzoqd-239" value="&lt;font size=&quot;1&quot;&gt;&lt;b style=&quot;font-size: 13px;&quot;&gt;2&lt;/b&gt;&lt;/font&gt;" style="shape=partialRectangle;html=1;whiteSpace=wrap;connectable=0;overflow=hidden;fillColor=none;top=0;left=0;bottom=0;right=0;pointerEvents=1;" vertex="1" parent="D2VLdZtgTbW5Kp4wzoqd-238">
                    <mxGeometry width="60" height="40" as="geometry">
                        <mxRectangle width="60" height="40" as="alternateBounds"/>
                    </mxGeometry>
                </mxCell>
                <mxCell id="D2VLdZtgTbW5Kp4wzoqd-240" value="" style="shape=partialRectangle;html=1;whiteSpace=wrap;connectable=0;overflow=hidden;fillColor=none;top=0;left=0;bottom=0;right=0;pointerEvents=1;" vertex="1" parent="D2VLdZtgTbW5Kp4wzoqd-238">
                    <mxGeometry x="60" width="20" height="40" as="geometry">
                        <mxRectangle width="20" height="40" as="alternateBounds"/>
                    </mxGeometry>
                </mxCell>
                <mxCell id="D2VLdZtgTbW5Kp4wzoqd-241" value="" style="shape=table;startSize=0;container=1;collapsible=0;childLayout=tableLayout;" vertex="1" parent="1">
                    <mxGeometry x="374" y="920" width="80" height="40" as="geometry"/>
                </mxCell>
                <mxCell id="D2VLdZtgTbW5Kp4wzoqd-242" value="" style="shape=tableRow;horizontal=0;startSize=0;swimlaneHead=0;swimlaneBody=0;top=0;left=0;bottom=0;right=0;collapsible=0;dropTarget=0;fillColor=none;points=[[0,0.5],[1,0.5]];portConstraint=eastwest;" vertex="1" parent="D2VLdZtgTbW5Kp4wzoqd-241">
                    <mxGeometry width="80" height="40" as="geometry"/>
                </mxCell>
                <mxCell id="D2VLdZtgTbW5Kp4wzoqd-243" value="&lt;font size=&quot;1&quot;&gt;&lt;b style=&quot;font-size: 13px;&quot;&gt;4&lt;/b&gt;&lt;/font&gt;" style="shape=partialRectangle;html=1;whiteSpace=wrap;connectable=0;overflow=hidden;fillColor=none;top=0;left=0;bottom=0;right=0;pointerEvents=1;" vertex="1" parent="D2VLdZtgTbW5Kp4wzoqd-242">
                    <mxGeometry width="60" height="40" as="geometry">
                        <mxRectangle width="60" height="40" as="alternateBounds"/>
                    </mxGeometry>
                </mxCell>
                <mxCell id="D2VLdZtgTbW5Kp4wzoqd-244" value="" style="shape=partialRectangle;html=1;whiteSpace=wrap;connectable=0;overflow=hidden;fillColor=none;top=0;left=0;bottom=0;right=0;pointerEvents=1;" vertex="1" parent="D2VLdZtgTbW5Kp4wzoqd-242">
                    <mxGeometry x="60" width="20" height="40" as="geometry">
                        <mxRectangle width="20" height="40" as="alternateBounds"/>
                    </mxGeometry>
                </mxCell>
                <mxCell id="D2VLdZtgTbW5Kp4wzoqd-245" style="edgeStyle=none;rounded=0;orthogonalLoop=1;jettySize=auto;html=1;exitX=1;exitY=0.5;exitDx=0;exitDy=0;entryX=0;entryY=0.5;entryDx=0;entryDy=0;fontSize=13;endArrow=classic;endFill=1;" edge="1" parent="1" source="D2VLdZtgTbW5Kp4wzoqd-199" target="D2VLdZtgTbW5Kp4wzoqd-234">
                    <mxGeometry relative="1" as="geometry"/>
                </mxCell>
                <mxCell id="D2VLdZtgTbW5Kp4wzoqd-247" style="edgeStyle=none;rounded=0;orthogonalLoop=1;jettySize=auto;html=1;entryX=0;entryY=0.5;entryDx=0;entryDy=0;fontSize=13;endArrow=classic;endFill=1;" edge="1" parent="1" source="D2VLdZtgTbW5Kp4wzoqd-238" target="D2VLdZtgTbW5Kp4wzoqd-241">
                    <mxGeometry relative="1" as="geometry"/>
                </mxCell>
                <mxCell id="D2VLdZtgTbW5Kp4wzoqd-248" value="" style="shape=table;startSize=0;container=1;collapsible=0;childLayout=tableLayout;" vertex="1" parent="1">
                    <mxGeometry x="480" y="970" width="80" height="40" as="geometry"/>
                </mxCell>
                <mxCell id="D2VLdZtgTbW5Kp4wzoqd-249" value="" style="shape=tableRow;horizontal=0;startSize=0;swimlaneHead=0;swimlaneBody=0;top=0;left=0;bottom=0;right=0;collapsible=0;dropTarget=0;fillColor=none;points=[[0,0.5],[1,0.5]];portConstraint=eastwest;" vertex="1" parent="D2VLdZtgTbW5Kp4wzoqd-248">
                    <mxGeometry width="80" height="40" as="geometry"/>
                </mxCell>
                <mxCell id="D2VLdZtgTbW5Kp4wzoqd-250" value="&lt;font size=&quot;1&quot;&gt;&lt;b style=&quot;font-size: 13px;&quot;&gt;6&lt;/b&gt;&lt;/font&gt;" style="shape=partialRectangle;html=1;whiteSpace=wrap;connectable=0;overflow=hidden;fillColor=none;top=0;left=0;bottom=0;right=0;pointerEvents=1;" vertex="1" parent="D2VLdZtgTbW5Kp4wzoqd-249">
                    <mxGeometry width="60" height="40" as="geometry">
                        <mxRectangle width="60" height="40" as="alternateBounds"/>
                    </mxGeometry>
                </mxCell>
                <mxCell id="D2VLdZtgTbW5Kp4wzoqd-251" value="" style="shape=partialRectangle;html=1;whiteSpace=wrap;connectable=0;overflow=hidden;fillColor=none;top=0;left=0;bottom=0;right=0;pointerEvents=1;" vertex="1" parent="D2VLdZtgTbW5Kp4wzoqd-249">
                    <mxGeometry x="60" width="20" height="40" as="geometry">
                        <mxRectangle width="20" height="40" as="alternateBounds"/>
                    </mxGeometry>
                </mxCell>
                <mxCell id="D2VLdZtgTbW5Kp4wzoqd-252" value="" style="shape=table;startSize=0;container=1;collapsible=0;childLayout=tableLayout;" vertex="1" parent="1">
                    <mxGeometry x="374" y="970" width="80" height="40" as="geometry"/>
                </mxCell>
                <mxCell id="D2VLdZtgTbW5Kp4wzoqd-253" value="" style="shape=tableRow;horizontal=0;startSize=0;swimlaneHead=0;swimlaneBody=0;top=0;left=0;bottom=0;right=0;collapsible=0;dropTarget=0;fillColor=none;points=[[0,0.5],[1,0.5]];portConstraint=eastwest;" vertex="1" parent="D2VLdZtgTbW5Kp4wzoqd-252">
                    <mxGeometry width="80" height="40" as="geometry"/>
                </mxCell>
                <mxCell id="D2VLdZtgTbW5Kp4wzoqd-254" value="&lt;font size=&quot;1&quot;&gt;&lt;b style=&quot;font-size: 13px;&quot;&gt;3&lt;/b&gt;&lt;/font&gt;" style="shape=partialRectangle;html=1;whiteSpace=wrap;connectable=0;overflow=hidden;fillColor=none;top=0;left=0;bottom=0;right=0;pointerEvents=1;" vertex="1" parent="D2VLdZtgTbW5Kp4wzoqd-253">
                    <mxGeometry width="60" height="40" as="geometry">
                        <mxRectangle width="60" height="40" as="alternateBounds"/>
                    </mxGeometry>
                </mxCell>
                <mxCell id="D2VLdZtgTbW5Kp4wzoqd-255" value="" style="shape=partialRectangle;html=1;whiteSpace=wrap;connectable=0;overflow=hidden;fillColor=none;top=0;left=0;bottom=0;right=0;pointerEvents=1;" vertex="1" parent="D2VLdZtgTbW5Kp4wzoqd-253">
                    <mxGeometry x="60" width="20" height="40" as="geometry">
                        <mxRectangle width="20" height="40" as="alternateBounds"/>
                    </mxGeometry>
                </mxCell>
                <mxCell id="D2VLdZtgTbW5Kp4wzoqd-256" value="" style="shape=table;startSize=0;container=1;collapsible=0;childLayout=tableLayout;" vertex="1" parent="1">
                    <mxGeometry x="270" y="970" width="80" height="40" as="geometry"/>
                </mxCell>
                <mxCell id="D2VLdZtgTbW5Kp4wzoqd-257" value="" style="shape=tableRow;horizontal=0;startSize=0;swimlaneHead=0;swimlaneBody=0;top=0;left=0;bottom=0;right=0;collapsible=0;dropTarget=0;fillColor=none;points=[[0,0.5],[1,0.5]];portConstraint=eastwest;" vertex="1" parent="D2VLdZtgTbW5Kp4wzoqd-256">
                    <mxGeometry width="80" height="40" as="geometry"/>
                </mxCell>
                <mxCell id="D2VLdZtgTbW5Kp4wzoqd-258" value="&lt;font size=&quot;1&quot;&gt;&lt;b style=&quot;font-size: 13px;&quot;&gt;2&lt;/b&gt;&lt;/font&gt;" style="shape=partialRectangle;html=1;whiteSpace=wrap;connectable=0;overflow=hidden;fillColor=none;top=0;left=0;bottom=0;right=0;pointerEvents=1;" vertex="1" parent="D2VLdZtgTbW5Kp4wzoqd-257">
                    <mxGeometry width="60" height="40" as="geometry">
                        <mxRectangle width="60" height="40" as="alternateBounds"/>
                    </mxGeometry>
                </mxCell>
                <mxCell id="D2VLdZtgTbW5Kp4wzoqd-259" value="" style="shape=partialRectangle;html=1;whiteSpace=wrap;connectable=0;overflow=hidden;fillColor=none;top=0;left=0;bottom=0;right=0;pointerEvents=1;" vertex="1" parent="D2VLdZtgTbW5Kp4wzoqd-257">
                    <mxGeometry x="60" width="20" height="40" as="geometry">
                        <mxRectangle width="20" height="40" as="alternateBounds"/>
                    </mxGeometry>
                </mxCell>
                <mxCell id="D2VLdZtgTbW5Kp4wzoqd-260" value="" style="shape=table;startSize=0;container=1;collapsible=0;childLayout=tableLayout;" vertex="1" parent="1">
                    <mxGeometry x="165" y="970" width="80" height="40" as="geometry"/>
                </mxCell>
                <mxCell id="D2VLdZtgTbW5Kp4wzoqd-261" value="" style="shape=tableRow;horizontal=0;startSize=0;swimlaneHead=0;swimlaneBody=0;top=0;left=0;bottom=0;right=0;collapsible=0;dropTarget=0;fillColor=none;points=[[0,0.5],[1,0.5]];portConstraint=eastwest;" vertex="1" parent="D2VLdZtgTbW5Kp4wzoqd-260">
                    <mxGeometry width="80" height="40" as="geometry"/>
                </mxCell>
                <mxCell id="D2VLdZtgTbW5Kp4wzoqd-262" value="&lt;font size=&quot;1&quot;&gt;&lt;b style=&quot;font-size: 13px;&quot;&gt;1&lt;/b&gt;&lt;/font&gt;" style="shape=partialRectangle;html=1;whiteSpace=wrap;connectable=0;overflow=hidden;fillColor=none;top=0;left=0;bottom=0;right=0;pointerEvents=1;" vertex="1" parent="D2VLdZtgTbW5Kp4wzoqd-261">
                    <mxGeometry width="60" height="40" as="geometry">
                        <mxRectangle width="60" height="40" as="alternateBounds"/>
                    </mxGeometry>
                </mxCell>
                <mxCell id="D2VLdZtgTbW5Kp4wzoqd-263" value="" style="shape=partialRectangle;html=1;whiteSpace=wrap;connectable=0;overflow=hidden;fillColor=none;top=0;left=0;bottom=0;right=0;pointerEvents=1;" vertex="1" parent="D2VLdZtgTbW5Kp4wzoqd-261">
                    <mxGeometry x="60" width="20" height="40" as="geometry">
                        <mxRectangle width="20" height="40" as="alternateBounds"/>
                    </mxGeometry>
                </mxCell>
                <mxCell id="D2VLdZtgTbW5Kp4wzoqd-264" style="edgeStyle=none;rounded=0;orthogonalLoop=1;jettySize=auto;html=1;exitX=1;exitY=0.5;exitDx=0;exitDy=0;entryX=0;entryY=0.5;entryDx=0;entryDy=0;fontSize=13;endArrow=classic;endFill=1;" edge="1" parent="1" source="D2VLdZtgTbW5Kp4wzoqd-205" target="D2VLdZtgTbW5Kp4wzoqd-261">
                    <mxGeometry relative="1" as="geometry"/>
                </mxCell>
                <mxCell id="D2VLdZtgTbW5Kp4wzoqd-265" style="edgeStyle=none;rounded=0;orthogonalLoop=1;jettySize=auto;html=1;entryX=0;entryY=0.5;entryDx=0;entryDy=0;fontSize=13;endArrow=classic;endFill=1;" edge="1" parent="1" source="D2VLdZtgTbW5Kp4wzoqd-261" target="D2VLdZtgTbW5Kp4wzoqd-257">
                    <mxGeometry relative="1" as="geometry"/>
                </mxCell>
                <mxCell id="D2VLdZtgTbW5Kp4wzoqd-266" style="edgeStyle=none;rounded=0;orthogonalLoop=1;jettySize=auto;html=1;entryX=0;entryY=0.5;entryDx=0;entryDy=0;fontSize=13;endArrow=classic;endFill=1;" edge="1" parent="1" source="D2VLdZtgTbW5Kp4wzoqd-257" target="D2VLdZtgTbW5Kp4wzoqd-253">
                    <mxGeometry relative="1" as="geometry"/>
                </mxCell>
                <mxCell id="D2VLdZtgTbW5Kp4wzoqd-267" style="edgeStyle=none;rounded=0;orthogonalLoop=1;jettySize=auto;html=1;entryX=0;entryY=0.5;entryDx=0;entryDy=0;fontSize=13;endArrow=classic;endFill=1;" edge="1" parent="1" source="D2VLdZtgTbW5Kp4wzoqd-253" target="D2VLdZtgTbW5Kp4wzoqd-249">
                    <mxGeometry relative="1" as="geometry"/>
                </mxCell>
                <mxCell id="D2VLdZtgTbW5Kp4wzoqd-268" value="" style="shape=table;startSize=0;container=1;collapsible=0;childLayout=tableLayout;" vertex="1" parent="1">
                    <mxGeometry x="374" y="1020" width="80" height="40" as="geometry"/>
                </mxCell>
                <mxCell id="D2VLdZtgTbW5Kp4wzoqd-269" value="" style="shape=tableRow;horizontal=0;startSize=0;swimlaneHead=0;swimlaneBody=0;top=0;left=0;bottom=0;right=0;collapsible=0;dropTarget=0;fillColor=none;points=[[0,0.5],[1,0.5]];portConstraint=eastwest;" vertex="1" parent="D2VLdZtgTbW5Kp4wzoqd-268">
                    <mxGeometry width="80" height="40" as="geometry"/>
                </mxCell>
                <mxCell id="D2VLdZtgTbW5Kp4wzoqd-270" value="&lt;font size=&quot;1&quot;&gt;&lt;b style=&quot;font-size: 13px;&quot;&gt;8&lt;/b&gt;&lt;/font&gt;" style="shape=partialRectangle;html=1;whiteSpace=wrap;connectable=0;overflow=hidden;fillColor=none;top=0;left=0;bottom=0;right=0;pointerEvents=1;" vertex="1" parent="D2VLdZtgTbW5Kp4wzoqd-269">
                    <mxGeometry width="60" height="40" as="geometry">
                        <mxRectangle width="60" height="40" as="alternateBounds"/>
                    </mxGeometry>
                </mxCell>
                <mxCell id="D2VLdZtgTbW5Kp4wzoqd-271" value="" style="shape=partialRectangle;html=1;whiteSpace=wrap;connectable=0;overflow=hidden;fillColor=none;top=0;left=0;bottom=0;right=0;pointerEvents=1;" vertex="1" parent="D2VLdZtgTbW5Kp4wzoqd-269">
                    <mxGeometry x="60" width="20" height="40" as="geometry">
                        <mxRectangle width="20" height="40" as="alternateBounds"/>
                    </mxGeometry>
                </mxCell>
                <mxCell id="D2VLdZtgTbW5Kp4wzoqd-272" value="" style="shape=table;startSize=0;container=1;collapsible=0;childLayout=tableLayout;" vertex="1" parent="1">
                    <mxGeometry x="270" y="1020" width="80" height="40" as="geometry"/>
                </mxCell>
                <mxCell id="D2VLdZtgTbW5Kp4wzoqd-273" value="" style="shape=tableRow;horizontal=0;startSize=0;swimlaneHead=0;swimlaneBody=0;top=0;left=0;bottom=0;right=0;collapsible=0;dropTarget=0;fillColor=none;points=[[0,0.5],[1,0.5]];portConstraint=eastwest;" vertex="1" parent="D2VLdZtgTbW5Kp4wzoqd-272">
                    <mxGeometry width="80" height="40" as="geometry"/>
                </mxCell>
                <mxCell id="D2VLdZtgTbW5Kp4wzoqd-274" value="&lt;font size=&quot;1&quot;&gt;&lt;b style=&quot;font-size: 13px;&quot;&gt;7&lt;/b&gt;&lt;/font&gt;" style="shape=partialRectangle;html=1;whiteSpace=wrap;connectable=0;overflow=hidden;fillColor=none;top=0;left=0;bottom=0;right=0;pointerEvents=1;" vertex="1" parent="D2VLdZtgTbW5Kp4wzoqd-273">
                    <mxGeometry width="60" height="40" as="geometry">
                        <mxRectangle width="60" height="40" as="alternateBounds"/>
                    </mxGeometry>
                </mxCell>
                <mxCell id="D2VLdZtgTbW5Kp4wzoqd-275" value="" style="shape=partialRectangle;html=1;whiteSpace=wrap;connectable=0;overflow=hidden;fillColor=none;top=0;left=0;bottom=0;right=0;pointerEvents=1;" vertex="1" parent="D2VLdZtgTbW5Kp4wzoqd-273">
                    <mxGeometry x="60" width="20" height="40" as="geometry">
                        <mxRectangle width="20" height="40" as="alternateBounds"/>
                    </mxGeometry>
                </mxCell>
                <mxCell id="D2VLdZtgTbW5Kp4wzoqd-276" value="" style="shape=table;startSize=0;container=1;collapsible=0;childLayout=tableLayout;" vertex="1" parent="1">
                    <mxGeometry x="165" y="1020" width="80" height="40" as="geometry"/>
                </mxCell>
                <mxCell id="D2VLdZtgTbW5Kp4wzoqd-277" value="" style="shape=tableRow;horizontal=0;startSize=0;swimlaneHead=0;swimlaneBody=0;top=0;left=0;bottom=0;right=0;collapsible=0;dropTarget=0;fillColor=none;points=[[0,0.5],[1,0.5]];portConstraint=eastwest;" vertex="1" parent="D2VLdZtgTbW5Kp4wzoqd-276">
                    <mxGeometry width="80" height="40" as="geometry"/>
                </mxCell>
                <mxCell id="D2VLdZtgTbW5Kp4wzoqd-278" value="&lt;font size=&quot;1&quot;&gt;&lt;b style=&quot;font-size: 13px;&quot;&gt;6&lt;/b&gt;&lt;/font&gt;" style="shape=partialRectangle;html=1;whiteSpace=wrap;connectable=0;overflow=hidden;fillColor=none;top=0;left=0;bottom=0;right=0;pointerEvents=1;" vertex="1" parent="D2VLdZtgTbW5Kp4wzoqd-277">
                    <mxGeometry width="60" height="40" as="geometry">
                        <mxRectangle width="60" height="40" as="alternateBounds"/>
                    </mxGeometry>
                </mxCell>
                <mxCell id="D2VLdZtgTbW5Kp4wzoqd-279" value="" style="shape=partialRectangle;html=1;whiteSpace=wrap;connectable=0;overflow=hidden;fillColor=none;top=0;left=0;bottom=0;right=0;pointerEvents=1;" vertex="1" parent="D2VLdZtgTbW5Kp4wzoqd-277">
                    <mxGeometry x="60" width="20" height="40" as="geometry">
                        <mxRectangle width="20" height="40" as="alternateBounds"/>
                    </mxGeometry>
                </mxCell>
                <mxCell id="D2VLdZtgTbW5Kp4wzoqd-280" style="edgeStyle=none;rounded=0;orthogonalLoop=1;jettySize=auto;html=1;exitX=1;exitY=0.5;exitDx=0;exitDy=0;entryX=0;entryY=0.5;entryDx=0;entryDy=0;fontSize=13;endArrow=classic;endFill=1;" edge="1" parent="1" source="D2VLdZtgTbW5Kp4wzoqd-202" target="D2VLdZtgTbW5Kp4wzoqd-277">
                    <mxGeometry relative="1" as="geometry"/>
                </mxCell>
                <mxCell id="D2VLdZtgTbW5Kp4wzoqd-281" style="edgeStyle=none;rounded=0;orthogonalLoop=1;jettySize=auto;html=1;exitX=1;exitY=0.5;exitDx=0;exitDy=0;entryX=0;entryY=0.5;entryDx=0;entryDy=0;fontSize=13;endArrow=classic;endFill=1;" edge="1" parent="1" source="D2VLdZtgTbW5Kp4wzoqd-277" target="D2VLdZtgTbW5Kp4wzoqd-273">
                    <mxGeometry relative="1" as="geometry"/>
                </mxCell>
                <mxCell id="D2VLdZtgTbW5Kp4wzoqd-282" style="edgeStyle=none;rounded=0;orthogonalLoop=1;jettySize=auto;html=1;exitX=1;exitY=0.5;exitDx=0;exitDy=0;entryX=0;entryY=0.5;entryDx=0;entryDy=0;fontSize=13;endArrow=classic;endFill=1;" edge="1" parent="1" source="D2VLdZtgTbW5Kp4wzoqd-273" target="D2VLdZtgTbW5Kp4wzoqd-268">
                    <mxGeometry relative="1" as="geometry"/>
                </mxCell>
                <mxCell id="D2VLdZtgTbW5Kp4wzoqd-283" value="" style="shape=table;startSize=0;container=1;collapsible=0;childLayout=tableLayout;" vertex="1" parent="1">
                    <mxGeometry x="165" y="1070" width="80" height="40" as="geometry"/>
                </mxCell>
                <mxCell id="D2VLdZtgTbW5Kp4wzoqd-284" value="" style="shape=tableRow;horizontal=0;startSize=0;swimlaneHead=0;swimlaneBody=0;top=0;left=0;bottom=0;right=0;collapsible=0;dropTarget=0;fillColor=none;points=[[0,0.5],[1,0.5]];portConstraint=eastwest;" vertex="1" parent="D2VLdZtgTbW5Kp4wzoqd-283">
                    <mxGeometry width="80" height="40" as="geometry"/>
                </mxCell>
                <mxCell id="D2VLdZtgTbW5Kp4wzoqd-285" value="&lt;font size=&quot;1&quot;&gt;&lt;b style=&quot;font-size: 13px;&quot;&gt;4&lt;/b&gt;&lt;/font&gt;" style="shape=partialRectangle;html=1;whiteSpace=wrap;connectable=0;overflow=hidden;fillColor=none;top=0;left=0;bottom=0;right=0;pointerEvents=1;" vertex="1" parent="D2VLdZtgTbW5Kp4wzoqd-284">
                    <mxGeometry width="60" height="40" as="geometry">
                        <mxRectangle width="60" height="40" as="alternateBounds"/>
                    </mxGeometry>
                </mxCell>
                <mxCell id="D2VLdZtgTbW5Kp4wzoqd-286" value="" style="shape=partialRectangle;html=1;whiteSpace=wrap;connectable=0;overflow=hidden;fillColor=none;top=0;left=0;bottom=0;right=0;pointerEvents=1;" vertex="1" parent="D2VLdZtgTbW5Kp4wzoqd-284">
                    <mxGeometry x="60" width="20" height="40" as="geometry">
                        <mxRectangle width="20" height="40" as="alternateBounds"/>
                    </mxGeometry>
                </mxCell>
                <mxCell id="D2VLdZtgTbW5Kp4wzoqd-287" value="" style="shape=table;startSize=0;container=1;collapsible=0;childLayout=tableLayout;" vertex="1" parent="1">
                    <mxGeometry x="270" y="1070" width="80" height="40" as="geometry"/>
                </mxCell>
                <mxCell id="D2VLdZtgTbW5Kp4wzoqd-288" value="" style="shape=tableRow;horizontal=0;startSize=0;swimlaneHead=0;swimlaneBody=0;top=0;left=0;bottom=0;right=0;collapsible=0;dropTarget=0;fillColor=none;points=[[0,0.5],[1,0.5]];portConstraint=eastwest;" vertex="1" parent="D2VLdZtgTbW5Kp4wzoqd-287">
                    <mxGeometry width="80" height="40" as="geometry"/>
                </mxCell>
                <mxCell id="D2VLdZtgTbW5Kp4wzoqd-289" value="&lt;font size=&quot;1&quot;&gt;&lt;b style=&quot;font-size: 13px;&quot;&gt;5&lt;/b&gt;&lt;/font&gt;" style="shape=partialRectangle;html=1;whiteSpace=wrap;connectable=0;overflow=hidden;fillColor=none;top=0;left=0;bottom=0;right=0;pointerEvents=1;" vertex="1" parent="D2VLdZtgTbW5Kp4wzoqd-288">
                    <mxGeometry width="60" height="40" as="geometry">
                        <mxRectangle width="60" height="40" as="alternateBounds"/>
                    </mxGeometry>
                </mxCell>
                <mxCell id="D2VLdZtgTbW5Kp4wzoqd-290" value="" style="shape=partialRectangle;html=1;whiteSpace=wrap;connectable=0;overflow=hidden;fillColor=none;top=0;left=0;bottom=0;right=0;pointerEvents=1;" vertex="1" parent="D2VLdZtgTbW5Kp4wzoqd-288">
                    <mxGeometry x="60" width="20" height="40" as="geometry">
                        <mxRectangle width="20" height="40" as="alternateBounds"/>
                    </mxGeometry>
                </mxCell>
                <mxCell id="D2VLdZtgTbW5Kp4wzoqd-291" value="" style="shape=table;startSize=0;container=1;collapsible=0;childLayout=tableLayout;" vertex="1" parent="1">
                    <mxGeometry x="374" y="1070" width="80" height="40" as="geometry"/>
                </mxCell>
                <mxCell id="D2VLdZtgTbW5Kp4wzoqd-292" value="" style="shape=tableRow;horizontal=0;startSize=0;swimlaneHead=0;swimlaneBody=0;top=0;left=0;bottom=0;right=0;collapsible=0;dropTarget=0;fillColor=none;points=[[0,0.5],[1,0.5]];portConstraint=eastwest;" vertex="1" parent="D2VLdZtgTbW5Kp4wzoqd-291">
                    <mxGeometry width="80" height="40" as="geometry"/>
                </mxCell>
                <mxCell id="D2VLdZtgTbW5Kp4wzoqd-293" value="&lt;font size=&quot;1&quot;&gt;&lt;b style=&quot;font-size: 13px;&quot;&gt;7&lt;/b&gt;&lt;/font&gt;" style="shape=partialRectangle;html=1;whiteSpace=wrap;connectable=0;overflow=hidden;fillColor=none;top=0;left=0;bottom=0;right=0;pointerEvents=1;" vertex="1" parent="D2VLdZtgTbW5Kp4wzoqd-292">
                    <mxGeometry width="60" height="40" as="geometry">
                        <mxRectangle width="60" height="40" as="alternateBounds"/>
                    </mxGeometry>
                </mxCell>
                <mxCell id="D2VLdZtgTbW5Kp4wzoqd-294" value="" style="shape=partialRectangle;html=1;whiteSpace=wrap;connectable=0;overflow=hidden;fillColor=none;top=0;left=0;bottom=0;right=0;pointerEvents=1;" vertex="1" parent="D2VLdZtgTbW5Kp4wzoqd-292">
                    <mxGeometry x="60" width="20" height="40" as="geometry">
                        <mxRectangle width="20" height="40" as="alternateBounds"/>
                    </mxGeometry>
                </mxCell>
                <mxCell id="D2VLdZtgTbW5Kp4wzoqd-296" style="edgeStyle=none;rounded=0;orthogonalLoop=1;jettySize=auto;html=1;entryX=0;entryY=0.5;entryDx=0;entryDy=0;fontSize=13;endArrow=classic;endFill=1;" edge="1" parent="1" source="D2VLdZtgTbW5Kp4wzoqd-284" target="D2VLdZtgTbW5Kp4wzoqd-288">
                    <mxGeometry relative="1" as="geometry"/>
                </mxCell>
                <mxCell id="D2VLdZtgTbW5Kp4wzoqd-297" style="edgeStyle=none;rounded=0;orthogonalLoop=1;jettySize=auto;html=1;exitX=1;exitY=0.5;exitDx=0;exitDy=0;entryX=0;entryY=0.5;entryDx=0;entryDy=0;fontSize=13;endArrow=classic;endFill=1;" edge="1" parent="1" source="D2VLdZtgTbW5Kp4wzoqd-288" target="D2VLdZtgTbW5Kp4wzoqd-291">
                    <mxGeometry relative="1" as="geometry"/>
                </mxCell>
                <mxCell id="D2VLdZtgTbW5Kp4wzoqd-298" value="" style="shape=table;startSize=0;container=1;collapsible=0;childLayout=tableLayout;" vertex="1" parent="1">
                    <mxGeometry x="165" y="1120" width="80" height="40" as="geometry"/>
                </mxCell>
                <mxCell id="D2VLdZtgTbW5Kp4wzoqd-299" value="" style="shape=tableRow;horizontal=0;startSize=0;swimlaneHead=0;swimlaneBody=0;top=0;left=0;bottom=0;right=0;collapsible=0;dropTarget=0;fillColor=none;points=[[0,0.5],[1,0.5]];portConstraint=eastwest;" vertex="1" parent="D2VLdZtgTbW5Kp4wzoqd-298">
                    <mxGeometry width="80" height="40" as="geometry"/>
                </mxCell>
                <mxCell id="D2VLdZtgTbW5Kp4wzoqd-300" value="&lt;font size=&quot;1&quot;&gt;&lt;b style=&quot;font-size: 13px;&quot;&gt;5&lt;/b&gt;&lt;/font&gt;" style="shape=partialRectangle;html=1;whiteSpace=wrap;connectable=0;overflow=hidden;fillColor=none;top=0;left=0;bottom=0;right=0;pointerEvents=1;" vertex="1" parent="D2VLdZtgTbW5Kp4wzoqd-299">
                    <mxGeometry width="60" height="40" as="geometry">
                        <mxRectangle width="60" height="40" as="alternateBounds"/>
                    </mxGeometry>
                </mxCell>
                <mxCell id="D2VLdZtgTbW5Kp4wzoqd-301" value="" style="shape=partialRectangle;html=1;whiteSpace=wrap;connectable=0;overflow=hidden;fillColor=none;top=0;left=0;bottom=0;right=0;pointerEvents=1;" vertex="1" parent="D2VLdZtgTbW5Kp4wzoqd-299">
                    <mxGeometry x="60" width="20" height="40" as="geometry">
                        <mxRectangle width="20" height="40" as="alternateBounds"/>
                    </mxGeometry>
                </mxCell>
                <mxCell id="D2VLdZtgTbW5Kp4wzoqd-302" value="" style="shape=table;startSize=0;container=1;collapsible=0;childLayout=tableLayout;" vertex="1" parent="1">
                    <mxGeometry x="270" y="1120" width="80" height="40" as="geometry"/>
                </mxCell>
                <mxCell id="D2VLdZtgTbW5Kp4wzoqd-303" value="" style="shape=tableRow;horizontal=0;startSize=0;swimlaneHead=0;swimlaneBody=0;top=0;left=0;bottom=0;right=0;collapsible=0;dropTarget=0;fillColor=none;points=[[0,0.5],[1,0.5]];portConstraint=eastwest;" vertex="1" parent="D2VLdZtgTbW5Kp4wzoqd-302">
                    <mxGeometry width="80" height="40" as="geometry"/>
                </mxCell>
                <mxCell id="D2VLdZtgTbW5Kp4wzoqd-304" value="&lt;font size=&quot;1&quot;&gt;&lt;b style=&quot;font-size: 13px;&quot;&gt;6&lt;/b&gt;&lt;/font&gt;" style="shape=partialRectangle;html=1;whiteSpace=wrap;connectable=0;overflow=hidden;fillColor=none;top=0;left=0;bottom=0;right=0;pointerEvents=1;" vertex="1" parent="D2VLdZtgTbW5Kp4wzoqd-303">
                    <mxGeometry width="60" height="40" as="geometry">
                        <mxRectangle width="60" height="40" as="alternateBounds"/>
                    </mxGeometry>
                </mxCell>
                <mxCell id="D2VLdZtgTbW5Kp4wzoqd-305" value="" style="shape=partialRectangle;html=1;whiteSpace=wrap;connectable=0;overflow=hidden;fillColor=none;top=0;left=0;bottom=0;right=0;pointerEvents=1;" vertex="1" parent="D2VLdZtgTbW5Kp4wzoqd-303">
                    <mxGeometry x="60" width="20" height="40" as="geometry">
                        <mxRectangle width="20" height="40" as="alternateBounds"/>
                    </mxGeometry>
                </mxCell>
                <mxCell id="D2VLdZtgTbW5Kp4wzoqd-306" value="" style="shape=table;startSize=0;container=1;collapsible=0;childLayout=tableLayout;" vertex="1" parent="1">
                    <mxGeometry x="374" y="1120" width="80" height="40" as="geometry"/>
                </mxCell>
                <mxCell id="D2VLdZtgTbW5Kp4wzoqd-307" value="" style="shape=tableRow;horizontal=0;startSize=0;swimlaneHead=0;swimlaneBody=0;top=0;left=0;bottom=0;right=0;collapsible=0;dropTarget=0;fillColor=none;points=[[0,0.5],[1,0.5]];portConstraint=eastwest;" vertex="1" parent="D2VLdZtgTbW5Kp4wzoqd-306">
                    <mxGeometry width="80" height="40" as="geometry"/>
                </mxCell>
                <mxCell id="D2VLdZtgTbW5Kp4wzoqd-308" value="&lt;font size=&quot;1&quot;&gt;&lt;b style=&quot;font-size: 13px;&quot;&gt;8&lt;/b&gt;&lt;/font&gt;" style="shape=partialRectangle;html=1;whiteSpace=wrap;connectable=0;overflow=hidden;fillColor=none;top=0;left=0;bottom=0;right=0;pointerEvents=1;" vertex="1" parent="D2VLdZtgTbW5Kp4wzoqd-307">
                    <mxGeometry width="60" height="40" as="geometry">
                        <mxRectangle width="60" height="40" as="alternateBounds"/>
                    </mxGeometry>
                </mxCell>
                <mxCell id="D2VLdZtgTbW5Kp4wzoqd-309" value="" style="shape=partialRectangle;html=1;whiteSpace=wrap;connectable=0;overflow=hidden;fillColor=none;top=0;left=0;bottom=0;right=0;pointerEvents=1;" vertex="1" parent="D2VLdZtgTbW5Kp4wzoqd-307">
                    <mxGeometry x="60" width="20" height="40" as="geometry">
                        <mxRectangle width="20" height="40" as="alternateBounds"/>
                    </mxGeometry>
                </mxCell>
                <mxCell id="D2VLdZtgTbW5Kp4wzoqd-310" style="edgeStyle=none;rounded=0;orthogonalLoop=1;jettySize=auto;html=1;exitX=1;exitY=0.5;exitDx=0;exitDy=0;entryX=0;entryY=0.5;entryDx=0;entryDy=0;fontSize=13;endArrow=classic;endFill=1;" edge="1" parent="1" source="D2VLdZtgTbW5Kp4wzoqd-193" target="D2VLdZtgTbW5Kp4wzoqd-299">
                    <mxGeometry relative="1" as="geometry"/>
                </mxCell>
                <mxCell id="D2VLdZtgTbW5Kp4wzoqd-311" style="edgeStyle=none;rounded=0;orthogonalLoop=1;jettySize=auto;html=1;exitX=1;exitY=0.5;exitDx=0;exitDy=0;entryX=0;entryY=0.5;entryDx=0;entryDy=0;fontSize=13;endArrow=classic;endFill=1;" edge="1" parent="1" source="D2VLdZtgTbW5Kp4wzoqd-299" target="D2VLdZtgTbW5Kp4wzoqd-303">
                    <mxGeometry relative="1" as="geometry"/>
                </mxCell>
                <mxCell id="D2VLdZtgTbW5Kp4wzoqd-312" style="edgeStyle=none;rounded=0;orthogonalLoop=1;jettySize=auto;html=1;exitX=1;exitY=0.5;exitDx=0;exitDy=0;entryX=0;entryY=0.5;entryDx=0;entryDy=0;fontSize=13;endArrow=classic;endFill=1;" edge="1" parent="1" source="D2VLdZtgTbW5Kp4wzoqd-303" target="D2VLdZtgTbW5Kp4wzoqd-306">
                    <mxGeometry relative="1" as="geometry"/>
                </mxCell>
                <mxCell id="D2VLdZtgTbW5Kp4wzoqd-313" value="" style="shape=table;startSize=0;container=1;collapsible=0;childLayout=tableLayout;" vertex="1" parent="1">
                    <mxGeometry x="270" y="1169" width="80" height="40" as="geometry"/>
                </mxCell>
                <mxCell id="D2VLdZtgTbW5Kp4wzoqd-314" value="" style="shape=tableRow;horizontal=0;startSize=0;swimlaneHead=0;swimlaneBody=0;top=0;left=0;bottom=0;right=0;collapsible=0;dropTarget=0;fillColor=none;points=[[0,0.5],[1,0.5]];portConstraint=eastwest;" vertex="1" parent="D2VLdZtgTbW5Kp4wzoqd-313">
                    <mxGeometry width="80" height="40" as="geometry"/>
                </mxCell>
                <mxCell id="D2VLdZtgTbW5Kp4wzoqd-315" value="&lt;font size=&quot;1&quot;&gt;&lt;b style=&quot;font-size: 13px;&quot;&gt;7&lt;/b&gt;&lt;/font&gt;" style="shape=partialRectangle;html=1;whiteSpace=wrap;connectable=0;overflow=hidden;fillColor=none;top=0;left=0;bottom=0;right=0;pointerEvents=1;" vertex="1" parent="D2VLdZtgTbW5Kp4wzoqd-314">
                    <mxGeometry width="60" height="40" as="geometry">
                        <mxRectangle width="60" height="40" as="alternateBounds"/>
                    </mxGeometry>
                </mxCell>
                <mxCell id="D2VLdZtgTbW5Kp4wzoqd-316" value="" style="shape=partialRectangle;html=1;whiteSpace=wrap;connectable=0;overflow=hidden;fillColor=none;top=0;left=0;bottom=0;right=0;pointerEvents=1;" vertex="1" parent="D2VLdZtgTbW5Kp4wzoqd-314">
                    <mxGeometry x="60" width="20" height="40" as="geometry">
                        <mxRectangle width="20" height="40" as="alternateBounds"/>
                    </mxGeometry>
                </mxCell>
                <mxCell id="D2VLdZtgTbW5Kp4wzoqd-317" value="" style="shape=table;startSize=0;container=1;collapsible=0;childLayout=tableLayout;" vertex="1" parent="1">
                    <mxGeometry x="165" y="1169" width="80" height="40" as="geometry"/>
                </mxCell>
                <mxCell id="D2VLdZtgTbW5Kp4wzoqd-318" value="" style="shape=tableRow;horizontal=0;startSize=0;swimlaneHead=0;swimlaneBody=0;top=0;left=0;bottom=0;right=0;collapsible=0;dropTarget=0;fillColor=none;points=[[0,0.5],[1,0.5]];portConstraint=eastwest;" vertex="1" parent="D2VLdZtgTbW5Kp4wzoqd-317">
                    <mxGeometry width="80" height="40" as="geometry"/>
                </mxCell>
                <mxCell id="D2VLdZtgTbW5Kp4wzoqd-319" value="&lt;font size=&quot;1&quot;&gt;&lt;b style=&quot;font-size: 13px;&quot;&gt;5&lt;/b&gt;&lt;/font&gt;" style="shape=partialRectangle;html=1;whiteSpace=wrap;connectable=0;overflow=hidden;fillColor=none;top=0;left=0;bottom=0;right=0;pointerEvents=1;" vertex="1" parent="D2VLdZtgTbW5Kp4wzoqd-318">
                    <mxGeometry width="60" height="40" as="geometry">
                        <mxRectangle width="60" height="40" as="alternateBounds"/>
                    </mxGeometry>
                </mxCell>
                <mxCell id="D2VLdZtgTbW5Kp4wzoqd-320" value="" style="shape=partialRectangle;html=1;whiteSpace=wrap;connectable=0;overflow=hidden;fillColor=none;top=0;left=0;bottom=0;right=0;pointerEvents=1;" vertex="1" parent="D2VLdZtgTbW5Kp4wzoqd-318">
                    <mxGeometry x="60" width="20" height="40" as="geometry">
                        <mxRectangle width="20" height="40" as="alternateBounds"/>
                    </mxGeometry>
                </mxCell>
                <mxCell id="D2VLdZtgTbW5Kp4wzoqd-321" style="edgeStyle=none;rounded=0;orthogonalLoop=1;jettySize=auto;html=1;exitX=1;exitY=0.5;exitDx=0;exitDy=0;entryX=0;entryY=0.5;entryDx=0;entryDy=0;fontSize=13;endArrow=classic;endFill=1;" edge="1" parent="1" source="D2VLdZtgTbW5Kp4wzoqd-190" target="D2VLdZtgTbW5Kp4wzoqd-318">
                    <mxGeometry relative="1" as="geometry"/>
                </mxCell>
                <mxCell id="D2VLdZtgTbW5Kp4wzoqd-322" style="edgeStyle=none;rounded=0;orthogonalLoop=1;jettySize=auto;html=1;exitX=1;exitY=0.5;exitDx=0;exitDy=0;entryX=0;entryY=0.5;entryDx=0;entryDy=0;fontSize=13;endArrow=classic;endFill=1;" edge="1" parent="1" source="D2VLdZtgTbW5Kp4wzoqd-318" target="D2VLdZtgTbW5Kp4wzoqd-314">
                    <mxGeometry relative="1" as="geometry"/>
                </mxCell>
                <mxCell id="D2VLdZtgTbW5Kp4wzoqd-323" value="&lt;font style=&quot;font-size: 16px;&quot;&gt;&lt;b&gt;1&lt;/b&gt;&lt;/font&gt;" style="text;html=1;strokeColor=none;fillColor=none;align=center;verticalAlign=middle;whiteSpace=wrap;rounded=0;strokeWidth=3;" vertex="1" parent="1">
                    <mxGeometry x="15" y="90" width="60" height="30" as="geometry"/>
                </mxCell>
            </root>
        </mxGraphModel>
    </diagram>
    <diagram id="8hsCt1rD2AZcMHkFNm-L" name="Página-5">
        <mxGraphModel dx="2573" dy="1013" grid="1" gridSize="10" guides="1" tooltips="1" connect="1" arrows="1" fold="1" page="1" pageScale="1" pageWidth="827" pageHeight="1169" math="0" shadow="0">
            <root>
                <mxCell id="0"/>
                <mxCell id="1" parent="0"/>
                <mxCell id="gMhfppCMKbdNRgPqs-u--1" value="&lt;font style=&quot;font-size: 20px&quot;&gt;G(V, E) onde V={1,2,3,4,5,6,7,8}&lt;br&gt;E={(1,6),(1,8),(2,4), (2,6),(3,5),(5,8),(6,7)}&lt;br&gt;&lt;/font&gt;" style="text;html=1;strokeColor=none;fillColor=none;align=left;verticalAlign=middle;whiteSpace=wrap;rounded=0;strokeWidth=3;fontSize=16;" vertex="1" parent="1">
                    <mxGeometry x="330" y="120" width="340" height="140" as="geometry"/>
                </mxCell>
                <mxCell id="gMhfppCMKbdNRgPqs-u--2" value="7" style="ellipse;whiteSpace=wrap;html=1;aspect=fixed;strokeWidth=3;" vertex="1" parent="1">
                    <mxGeometry x="1090" y="190" width="50" height="50" as="geometry"/>
                </mxCell>
                <mxCell id="gMhfppCMKbdNRgPqs-u--17" style="edgeStyle=none;html=1;exitX=1;exitY=0;exitDx=0;exitDy=0;entryX=0;entryY=1;entryDx=0;entryDy=0;endArrow=none;endFill=0;" edge="1" parent="1" source="gMhfppCMKbdNRgPqs-u--3" target="gMhfppCMKbdNRgPqs-u--2">
                    <mxGeometry relative="1" as="geometry"/>
                </mxCell>
                <mxCell id="gMhfppCMKbdNRgPqs-u--18" style="edgeStyle=none;html=1;exitX=0;exitY=1;exitDx=0;exitDy=0;entryX=0.6;entryY=0.4;entryDx=0;entryDy=0;entryPerimeter=0;endArrow=none;endFill=0;" edge="1" parent="1" source="gMhfppCMKbdNRgPqs-u--3" target="gMhfppCMKbdNRgPqs-u--5">
                    <mxGeometry relative="1" as="geometry"/>
                </mxCell>
                <mxCell id="gMhfppCMKbdNRgPqs-u--3" value="6" style="ellipse;whiteSpace=wrap;html=1;aspect=fixed;strokeWidth=3;" vertex="1" parent="1">
                    <mxGeometry x="930" y="280" width="50" height="50" as="geometry"/>
                </mxCell>
                <mxCell id="gMhfppCMKbdNRgPqs-u--4" value="4" style="ellipse;whiteSpace=wrap;html=1;aspect=fixed;strokeWidth=3;" vertex="1" parent="1">
                    <mxGeometry x="1030" y="400" width="50" height="50" as="geometry"/>
                </mxCell>
                <mxCell id="gMhfppCMKbdNRgPqs-u--19" style="edgeStyle=none;html=1;exitX=1;exitY=0.5;exitDx=0;exitDy=0;entryX=0;entryY=0.5;entryDx=0;entryDy=0;endArrow=none;endFill=0;" edge="1" parent="1" source="gMhfppCMKbdNRgPqs-u--5" target="gMhfppCMKbdNRgPqs-u--4">
                    <mxGeometry relative="1" as="geometry"/>
                </mxCell>
                <mxCell id="gMhfppCMKbdNRgPqs-u--5" value="2" style="ellipse;whiteSpace=wrap;html=1;aspect=fixed;strokeWidth=3;" vertex="1" parent="1">
                    <mxGeometry x="850" y="400" width="50" height="50" as="geometry"/>
                </mxCell>
                <mxCell id="gMhfppCMKbdNRgPqs-u--13" style="edgeStyle=none;html=1;exitX=0;exitY=0.5;exitDx=0;exitDy=0;endArrow=none;endFill=0;" edge="1" parent="1" source="gMhfppCMKbdNRgPqs-u--6" target="gMhfppCMKbdNRgPqs-u--7">
                    <mxGeometry relative="1" as="geometry"/>
                </mxCell>
                <mxCell id="gMhfppCMKbdNRgPqs-u--6" value="5" style="ellipse;whiteSpace=wrap;html=1;aspect=fixed;strokeWidth=3;" vertex="1" parent="1">
                    <mxGeometry x="710" y="470" width="50" height="50" as="geometry"/>
                </mxCell>
                <mxCell id="gMhfppCMKbdNRgPqs-u--7" value="3" style="ellipse;whiteSpace=wrap;html=1;aspect=fixed;strokeWidth=3;" vertex="1" parent="1">
                    <mxGeometry x="580" y="469.99999999999994" width="50" height="50" as="geometry"/>
                </mxCell>
                <mxCell id="gMhfppCMKbdNRgPqs-u--12" style="edgeStyle=none;html=1;exitX=0.5;exitY=1;exitDx=0;exitDy=0;entryX=0.347;entryY=-0.064;entryDx=0;entryDy=0;entryPerimeter=0;endArrow=none;endFill=0;" edge="1" parent="1" source="gMhfppCMKbdNRgPqs-u--8" target="gMhfppCMKbdNRgPqs-u--6">
                    <mxGeometry relative="1" as="geometry"/>
                </mxCell>
                <mxCell id="gMhfppCMKbdNRgPqs-u--8" value="8" style="ellipse;whiteSpace=wrap;html=1;aspect=fixed;strokeWidth=3;" vertex="1" parent="1">
                    <mxGeometry x="670" y="330" width="50" height="50" as="geometry"/>
                </mxCell>
                <mxCell id="gMhfppCMKbdNRgPqs-u--9" style="edgeStyle=none;curved=1;rounded=0;orthogonalLoop=1;jettySize=auto;html=1;exitX=0;exitY=1;exitDx=0;exitDy=0;entryX=1;entryY=0;entryDx=0;entryDy=0;fontSize=12;endArrow=none;startSize=14;endSize=14;sourcePerimeterSpacing=8;targetPerimeterSpacing=8;endFill=0;" edge="1" parent="1" source="gMhfppCMKbdNRgPqs-u--10" target="gMhfppCMKbdNRgPqs-u--8">
                    <mxGeometry relative="1" as="geometry"/>
                </mxCell>
                <mxCell id="gMhfppCMKbdNRgPqs-u--16" style="edgeStyle=none;html=1;exitX=1;exitY=0.5;exitDx=0;exitDy=0;entryX=0;entryY=0;entryDx=0;entryDy=0;endArrow=none;endFill=0;" edge="1" parent="1" source="gMhfppCMKbdNRgPqs-u--10" target="gMhfppCMKbdNRgPqs-u--3">
                    <mxGeometry relative="1" as="geometry"/>
                </mxCell>
                <mxCell id="gMhfppCMKbdNRgPqs-u--10" value="1" style="ellipse;whiteSpace=wrap;html=1;aspect=fixed;strokeWidth=3;" vertex="1" parent="1">
                    <mxGeometry x="810" y="210" width="50" height="50" as="geometry"/>
                </mxCell>
                <mxCell id="gMhfppCMKbdNRgPqs-u--20" value="&lt;font style=&quot;font-size: 14px&quot;&gt;120&lt;br&gt;&lt;/font&gt;" style="text;html=1;strokeColor=none;fillColor=none;align=left;verticalAlign=middle;whiteSpace=wrap;rounded=0;strokeWidth=3;fontSize=16;" vertex="1" parent="1">
                    <mxGeometry x="740" y="260" width="30" height="40" as="geometry"/>
                </mxCell>
                <mxCell id="gMhfppCMKbdNRgPqs-u--24" value="&lt;font style=&quot;font-size: 14px&quot;&gt;200&lt;br&gt;&lt;/font&gt;" style="text;html=1;strokeColor=none;fillColor=none;align=left;verticalAlign=middle;whiteSpace=wrap;rounded=0;strokeWidth=3;fontSize=16;" vertex="1" parent="1">
                    <mxGeometry x="900" y="230" width="30" height="40" as="geometry"/>
                </mxCell>
                <mxCell id="gMhfppCMKbdNRgPqs-u--25" value="&lt;font style=&quot;font-size: 14px&quot;&gt;175&lt;span style=&quot;color: rgba(0 , 0 , 0 , 0) ; font-family: monospace ; font-size: 0px&quot;&gt;%3CmxGraphModel%3E%3Croot%3E%3CmxCell%20id%3D%220%22%2F%3E%3CmxCell%20id%3D%221%22%20parent%3D%220%22%2F%3E%3CmxCell%20id%3D%222%22%20value%3D%22%26lt%3Bfont%20style%3D%26quot%3Bfont-size%3A%2014px%26quot%3B%26gt%3B200%26lt%3Bbr%26gt%3B%26lt%3B%2Ffont%26gt%3B%22%20style%3D%22text%3Bhtml%3D1%3BstrokeColor%3Dnone%3BfillColor%3Dnone%3Balign%3Dleft%3BverticalAlign%3Dmiddle%3BwhiteSpace%3Dwrap%3Brounded%3D0%3BstrokeWidth%3D3%3BfontSize%3D16%3B%22%20vertex%3D%221%22%20parent%3D%221%22%3E%3CmxGeometry%20x%3D%22900%22%20y%3D%22230%22%20width%3D%2230%22%20height%3D%2240%22%20as%3D%22geometry%22%2F%3E%3C%2FmxCell%3E%3C%2Froot%3E%3C%2FmxGraphModel%3E&lt;/span&gt;&lt;br&gt;&lt;/font&gt;" style="text;html=1;strokeColor=none;fillColor=none;align=left;verticalAlign=middle;whiteSpace=wrap;rounded=0;strokeWidth=3;fontSize=16;" vertex="1" parent="1">
                    <mxGeometry x="1040" y="260" width="30" height="40" as="geometry"/>
                </mxCell>
                <mxCell id="gMhfppCMKbdNRgPqs-u--27" value="&lt;font style=&quot;font-size: 14px&quot;&gt;175&lt;span style=&quot;color: rgba(0 , 0 , 0 , 0) ; font-family: monospace ; font-size: 0px&quot;&gt;%3CmxGraphModel%3E%3Croot%3E%3CmxCell%20id%3D%220%22%2F%3E%3CmxCell%20id%3D%221%22%20parent%3D%220%22%2F%3E%3CmxCell%20id%3D%222%22%20value%3D%22%26lt%3Bfont%20style%3D%26quot%3Bfont-size%3A%2014px%26quot%3B%26gt%3B200%26lt%3Bbr%26gt%3B%26lt%3B%2Ffont%26gt%3B%22%20style%3D%22text%3Bhtml%3D1%3BstrokeColor%3Dnone%3BfillColor%3Dnone%3Balign%3Dleft%3BverticalAlign%3Dmiddle%3BwhiteSpace%3Dwrap%3Brounded%3D0%3BstrokeWidth%3D3%3BfontSize%3D16%3B%22%20vertex%3D%221%22%20parent%3D%221%22%3E%3CmxGeometry%20x%3D%22900%22%20y%3D%22230%22%20width%3D%2230%22%20height%3D%2240%22%20as%3D%22geometry%22%2F%3E%3C%2FmxCell%3E%3C%2Froot%3E%3C%2FmxGraphModel%3E&lt;/span&gt;&lt;br&gt;&lt;/font&gt;" style="text;html=1;strokeColor=none;fillColor=none;align=left;verticalAlign=middle;whiteSpace=wrap;rounded=0;strokeWidth=3;fontSize=16;" vertex="1" parent="1">
                    <mxGeometry x="950" y="430" width="30" height="40" as="geometry"/>
                </mxCell>
                <mxCell id="gMhfppCMKbdNRgPqs-u--28" value="&lt;font style=&quot;font-size: 14px&quot;&gt;180&lt;br&gt;&lt;/font&gt;" style="text;html=1;strokeColor=none;fillColor=none;align=left;verticalAlign=middle;whiteSpace=wrap;rounded=0;strokeWidth=3;fontSize=16;" vertex="1" parent="1">
                    <mxGeometry x="880" y="340" width="30" height="40" as="geometry"/>
                </mxCell>
                <mxCell id="gMhfppCMKbdNRgPqs-u--29" value="&lt;font style=&quot;font-size: 14px&quot;&gt;170&lt;br&gt;&lt;/font&gt;" style="text;html=1;strokeColor=none;fillColor=none;align=left;verticalAlign=middle;whiteSpace=wrap;rounded=0;strokeWidth=3;fontSize=16;" vertex="1" parent="1">
                    <mxGeometry x="720" y="400" width="30" height="40" as="geometry"/>
                </mxCell>
                <mxCell id="gMhfppCMKbdNRgPqs-u--30" value="&lt;font style=&quot;font-size: 14px&quot;&gt;115&lt;br&gt;&lt;/font&gt;" style="text;html=1;strokeColor=none;fillColor=none;align=left;verticalAlign=middle;whiteSpace=wrap;rounded=0;strokeWidth=3;fontSize=16;" vertex="1" parent="1">
                    <mxGeometry x="660" y="500" width="30" height="40" as="geometry"/>
                </mxCell>
            </root>
        </mxGraphModel>
    </diagram>
</mxfile>